<svg width="400" height="300" viewBox="0 0 400 300" fill="none" xmlns="http://www.w3.org/2000/svg">
<path d="M400 263.635H0V263.837H400V263.635Z" fill="white"/>
<path d="M359.92 276.592H333.424V276.793H359.92V276.592Z" fill="white"/>
<path d="M264.976 278.782H258.024V278.983H264.976V278.782Z" fill="white"/>
<path d="M332.624 269.119H317.272V269.32H332.624V269.119Z" fill="white"/>
<path d="M76.5199 270.472H41.9679V270.673H76.5199V270.472Z" fill="white"/>
<path d="M88.712 270.472H83.6479V270.673H88.712V270.472Z" fill="white"/>
<path d="M180.12 273.87H105.176V274.071H180.12V273.87Z" fill="white"/>
<path d="M189.6 227.722H35.128C33.9179 227.72 32.758 227.234 31.9031 226.372C31.0482 225.51 30.568 224.342 30.568 223.124V4.55766C30.5785 3.3466 31.0633 2.18862 31.9171 1.33526C32.7709 0.481902 33.9248 0.00207461 35.128 0H189.6C190.812 0 191.973 0.484422 192.83 1.3467C193.687 2.20898 194.168 3.37847 194.168 4.59792V223.124C194.168 224.343 193.687 225.513 192.83 226.375C191.973 227.237 190.812 227.722 189.6 227.722V227.722ZM35.128 0.161049C33.9709 0.163182 32.862 0.627334 32.0445 1.45163C31.2271 2.27592 30.768 3.393 30.768 4.55766V223.124C30.768 224.288 31.2271 225.406 32.0445 226.23C32.862 227.054 33.9709 227.518 35.128 227.52H189.6C190.758 227.518 191.868 227.054 192.686 226.23C193.505 225.406 193.966 224.289 193.968 223.124V4.55766C193.966 3.39226 193.505 2.2752 192.686 1.45114C191.868 0.627072 190.758 0.163177 189.6 0.161049H35.128Z" fill="white"/>
<path d="M362.648 227.722H208.168C206.957 227.72 205.796 227.234 204.94 226.373C204.084 225.511 203.602 224.343 203.6 223.124V4.55766C203.613 3.34586 204.099 2.1879 204.954 1.33476C205.809 0.481621 206.964 0.00205198 208.168 0H362.648C363.85 0.00419087 365.002 0.484955 365.854 1.33809C366.706 2.19122 367.189 3.34799 367.2 4.55766V223.124C367.2 224.34 366.721 225.508 365.868 226.369C365.014 227.231 363.857 227.717 362.648 227.722V227.722ZM208.168 0.161049C207.01 0.163177 205.9 0.627072 205.082 1.45114C204.263 2.2752 203.802 3.39226 203.8 4.55766V223.124C203.802 224.289 204.263 225.406 205.082 226.23C205.9 227.054 207.01 227.518 208.168 227.52H362.648C363.806 227.518 364.916 227.054 365.734 226.23C366.553 225.406 367.014 224.289 367.016 223.124V4.55766C367.014 3.39226 366.553 2.2752 365.734 1.45114C364.916 0.627072 363.806 0.163177 362.648 0.161049H208.168Z" fill="white"/>
<path d="M268.32 108.578C286.678 108.578 301.56 93.599 301.56 75.1208C301.56 56.6426 286.678 41.6631 268.32 41.6631C249.962 41.6631 235.08 56.6426 235.08 75.1208C235.08 93.599 249.962 108.578 268.32 108.578Z" fill="white"/>
<path d="M327.64 68.5259C327.64 67.0801 327.069 65.6935 326.054 64.6711C325.038 63.6488 323.66 63.0745 322.224 63.0745C321.698 63.0728 321.175 63.1515 320.672 63.308C320.749 62.7529 320.789 62.1934 320.792 61.6331C320.795 59.9346 320.425 58.2564 319.708 56.7187C318.991 55.181 317.946 53.8219 316.646 52.7384C315.347 51.655 313.825 50.8742 312.191 50.4518C310.556 50.0295 308.849 49.976 307.192 50.2953C306.061 48.4267 304.358 46.9787 302.338 46.1695C300.319 45.3602 298.093 45.2337 295.995 45.8089C293.898 46.3841 292.044 47.6299 290.711 49.3585C289.379 51.0871 288.641 53.2048 288.608 55.3925H288.44C286.037 55.4636 283.757 56.4743 282.083 58.21C280.408 59.9456 279.472 62.2697 279.472 64.689C279.472 67.1082 280.408 69.4323 282.083 71.1679C283.757 72.9036 286.037 73.9143 288.44 73.9854H322.4C323.807 73.9394 325.141 73.3437 326.119 72.3245C327.097 71.3054 327.643 69.943 327.64 68.5259Z" fill="white"/>
<path d="M242.088 98.513C242.088 97.0686 241.518 95.6832 240.504 94.6611C239.49 93.639 238.115 93.0637 236.68 93.0616C236.138 93.0565 235.598 93.1353 235.08 93.2951C235.326 91.6545 235.216 89.9799 234.758 88.386C234.3 86.7922 233.505 85.317 232.428 84.0616C231.35 82.8062 230.015 81.8005 228.515 81.1134C227.015 80.4263 225.384 80.0741 223.736 80.0811C223.027 80.0827 222.32 80.1501 221.624 80.2824C220.489 78.432 218.79 77.0006 216.78 76.2018C214.771 75.4031 212.558 75.2798 210.473 75.8504C208.389 76.421 206.543 77.6549 205.212 79.3679C203.881 81.0809 203.136 83.1812 203.088 85.3554H202.92C200.517 85.4266 198.237 86.4372 196.563 88.1729C194.888 89.9086 193.952 92.2326 193.952 94.6519C193.952 97.0712 194.888 99.3952 196.563 101.131C198.237 102.867 200.517 103.877 202.92 103.948H236.8C238.212 103.917 239.556 103.331 240.544 102.315C241.532 101.299 242.086 99.9346 242.088 98.513V98.513Z" fill="white"/>
<path d="M92.8001 108.828C92.8001 107.384 92.2305 105.998 91.2166 104.976C90.2026 103.954 88.8271 103.379 87.3921 103.377C86.8507 103.374 86.3118 103.45 85.7921 103.602C85.8754 103.05 85.9181 102.493 85.9201 101.935C85.9157 100.239 85.5408 98.5641 84.8219 97.0297C84.103 95.4953 83.0577 94.1388 81.7601 93.0562C80.4624 91.9737 78.9442 91.1916 77.3128 90.7653C75.6815 90.339 73.977 90.279 72.3201 90.5895C71.191 88.7183 69.4876 87.2679 67.4672 86.4575C65.4468 85.6471 63.2192 85.5206 61.121 86.0972C59.0229 86.6739 57.1683 87.9222 55.8374 89.6537C54.5065 91.3852 53.7717 93.5057 53.7441 95.6947H53.5761C51.1736 95.7658 48.8932 96.7765 47.2188 98.5122C45.5445 100.248 44.6079 102.572 44.6079 104.991C44.6079 107.41 45.5445 109.734 47.2188 111.47C48.8932 113.206 51.1736 114.216 53.5761 114.288H87.4881C88.9091 114.264 90.2637 113.678 91.2581 112.656C92.2525 111.634 92.8066 110.259 92.8001 108.828V108.828Z" fill="white"/>
<path d="M324.512 134.829C324.512 133.956 324.167 133.118 323.553 132.5C322.94 131.883 322.108 131.536 321.24 131.536C320.92 131.536 320.602 131.582 320.296 131.673C320.439 130.682 320.369 129.672 320.091 128.711C319.812 127.749 319.331 126.86 318.681 126.102C318.031 125.344 317.226 124.736 316.322 124.319C315.417 123.902 314.435 123.686 313.44 123.685C313.013 123.684 312.587 123.724 312.168 123.806C311.479 122.689 310.451 121.826 309.236 121.346C308.02 120.866 306.684 120.794 305.424 121.141C304.165 121.487 303.051 122.234 302.248 123.27C301.445 124.306 300.996 125.576 300.968 126.89H300.8C299.315 126.89 297.89 127.483 296.84 128.541C295.79 129.598 295.2 131.031 295.2 132.526C295.2 134.021 295.79 135.455 296.84 136.512C297.89 137.569 299.315 138.163 300.8 138.163H321.296C321.724 138.157 322.148 138.065 322.541 137.894C322.935 137.724 323.291 137.476 323.59 137.167C323.889 136.857 324.124 136.491 324.282 136.09C324.44 135.689 324.518 135.261 324.512 134.829V134.829Z" fill="white"/>
<path d="M126.744 28.9161C126.748 28.402 126.631 27.8941 126.404 27.4338C126.176 26.9735 125.844 26.5738 125.434 26.2671C125.024 25.9603 124.548 25.7552 124.044 25.6684C123.541 25.5817 123.024 25.6157 122.536 25.7676C122.679 24.7769 122.609 23.7666 122.331 22.8055C122.052 21.8443 121.571 20.9547 120.921 20.1971C120.271 19.4394 119.466 18.8314 118.562 18.4143C117.657 17.9972 116.675 17.7808 115.68 17.7797C115.25 17.7788 114.822 17.8193 114.4 17.9005C113.711 16.784 112.683 15.9214 111.468 15.4411C110.253 14.9609 108.916 14.8888 107.656 15.2355C106.397 15.5823 105.283 16.3293 104.48 17.3653C103.677 18.4013 103.228 19.6708 103.2 20.9845H103.104C101.619 20.9845 100.194 21.5784 99.1441 22.6355C98.0939 23.6926 97.5039 25.1263 97.5039 26.6212C97.5039 28.1161 98.0939 29.5499 99.1441 30.6069C100.194 31.664 101.619 32.2579 103.104 32.2579H123.6C124.454 32.2243 125.261 31.856 125.848 31.2315C126.436 30.6071 126.757 29.7761 126.744 28.9161Z" fill="white"/>
<path d="M71.8881 151.916L93.5521 250.969L97.4881 249.109L74.7361 151.361L71.8881 151.916Z" fill="white"/>
<path d="M320.624 250.494C320.624 250.494 307.2 157.424 337.376 61.1982L332.648 57.5263C332.648 57.5263 297.32 130.32 302.464 253.135L320.624 250.494Z" fill="white"/>
<path d="M345.6 35.8976C356.656 28.6021 373.016 40.2056 375.264 58.3396C373.639 57.3965 371.94 56.5886 370.184 55.9239C369.328 51.3581 368.504 47.3239 368.504 47.3239L369.096 55.5132C368.12 55.1589 367.056 54.8126 365.896 54.4986L365.096 50.0939L364.736 54.2087C363.17 53.8407 361.583 53.5717 359.984 53.4035L357.92 40.5196L356.88 53.1458C355.242 53.1 353.603 53.1727 351.976 53.3632L350.712 44.6183V53.5403C349.311 53.7682 347.927 54.0883 346.568 54.4986L345.056 41.4537C345.056 41.4537 345.096 48.7894 345.016 55.0139C341.104 56.4409 337.486 58.581 334.344 61.327L334.224 59.7165C334.224 59.7165 335.496 42.5488 345.6 35.8976Z" fill="white"/>
<path d="M330.312 30.0677C321.512 20.123 302.728 27.0158 295.856 43.9259C297.668 43.4363 299.517 43.0997 301.384 42.9193C303.392 38.7401 305.24 35.0602 305.24 35.0602L302.544 42.8066C303.576 42.7261 304.688 42.6777 305.88 42.6777L307.76 38.6515L307.04 42.718C308.647 42.762 310.251 42.9073 311.84 43.1528L317.176 31.2836L314.92 43.7648C316.515 44.1462 318.079 44.6468 319.6 45.2626L323.096 37.1538L320.8 45.7376C322.097 46.321 323.35 46.9964 324.552 47.7588L329.408 35.5594C329.408 35.5594 327.456 42.6294 325.92 48.6526C329.325 51.0634 332.259 54.0852 334.576 57.5666L335.112 56.0447C335.112 56.0447 338.32 39.1508 330.312 30.0677Z" fill="white"/>
<path d="M321.856 53.6531C330.656 45.0129 337.264 52.5338 337.264 52.5338C333.96 53.3954 331.008 55.5293 328.464 58.243L327.272 56.6808L327.464 59.3462C326.856 60.0548 326.264 60.7956 325.696 61.5606L323.68 56.9466L324.544 63.1952C323.744 64.387 322.944 65.6109 322.28 66.8349L321.392 62.2611L321.464 68.3246C320.728 69.6935 320.072 71.0382 319.488 72.3025L318.528 63.9038L318.4 74.7665C316.992 78.1163 316.256 80.4676 316.256 80.4676C316.256 80.4676 313.056 62.3014 321.856 53.6531Z" fill="white"/>
<path d="M345.6 74.082L343.784 75.1369C343.52 73.7277 343.208 72.2541 342.864 70.7564L344.096 68.4776L342.544 69.4439C342.424 68.9446 342.288 68.4534 342.16 67.9542L343.76 63.4931L341.36 65.2727C340.08 61.2465 338.448 57.7115 336.408 56.0205C336.408 56.0205 356.584 62.5107 345.208 84.4052C345.208 84.4052 344.84 80.9427 344.032 76.3931L345.6 74.082Z" fill="white"/>
<path d="M325.76 56.1655L322.56 50.0456L323.888 56.4231C323.568 56.4714 323.24 56.5359 322.912 56.6003L318.728 51.3582L319.76 57.3894C318.33 57.8252 316.928 58.3469 315.56 58.9516C314.069 59.6242 312.614 60.3741 311.2 61.1982L309.16 55.8434L310.112 61.8343C308.728 62.6396 307.376 63.5495 306.112 64.4675L305.104 59.7488L305.2 65.1197C303.6 66.2793 302.112 67.4549 300.736 68.6064L300.864 60.0548L299.624 69.5485C298.216 70.7564 296.944 71.9159 295.864 72.9466L295.712 67.012L294.216 74.5491C292.664 76.1032 291.776 77.0936 291.776 77.0936C292.576 56.3265 300.576 48.105 313.808 45.8503C327.04 43.5957 336.576 57.4538 336.576 57.4538C336.576 57.4538 332.464 55.4891 325.76 56.1655Z" fill="white"/>
<path d="M364.352 81.5466L363.144 87.7711C362.56 86.2331 361.768 84.2602 360.744 82.0619L361.832 73.003L359.848 80.1455C358.297 76.8975 356.5 73.7747 354.472 70.8047L356.36 64.5238L353.304 69.1862C352.688 68.3809 352.056 67.5757 351.4 66.8349L352.472 62.8811L350.816 66.1907C350.368 65.6914 349.904 65.2163 349.432 64.7573L350.736 59.483L348.664 64.0487C347.375 62.8616 345.955 61.8269 344.432 60.9647L346.536 54.5227L343.24 60.3688C341.167 59.3903 338.896 58.9132 336.608 58.9757C336.608 58.9757 340.608 52.5338 347.96 50.3194C355.312 48.105 371.16 61.5042 364.28 91.0645C364.28 91.0645 364.072 90.3962 363.656 89.2447L364.352 81.5466Z" fill="white"/>
<path d="M352.224 24.1089L353.48 27.8613C353.016 27.8877 352.556 27.9551 352.104 28.0626L350.592 23.1748L351.6 28.1834C350.641 28.472 349.726 28.892 348.88 29.4315L346.8 22.8366L348 30.0274C347.664 30.277 347.328 30.5508 346.984 30.8326L344.632 24.6404L346.4 31.4044C344.662 33.1559 343.178 35.1457 341.992 37.3148L341.376 28.1834L340.336 40.576C338.611 44.4513 337.22 48.468 336.176 52.5822C336.176 52.5822 334.896 19.5673 342.792 15.8632C350.688 12.1591 355.384 28.0143 355.384 28.0143C355.033 27.9102 354.67 27.8507 354.304 27.8372L352.224 24.1089Z" fill="white"/>
<path d="M340.944 60.8359L340.24 67.0926L337.84 61.0613L334.64 65.78L333.376 61.3834L329.68 64.5077C329.68 64.5077 330.136 56.5278 332.496 52.8801C334.856 49.2323 341.944 51.793 340.944 60.8359Z" fill="white"/>
<path d="M242.4 161.442V117.815C242.4 117.815 233.6 127.228 227.784 125.939C221.968 124.651 214.4 129.104 214.4 129.104C214.4 129.104 222.024 127.985 224.856 131.101C227.688 134.217 240.328 134.547 240.328 134.547V163.037L242.4 161.442Z" fill="white"/>
<path d="M281.2 148.067H279.2V150.813H272.608V148.067H266.128V150.813H259.536V148.067H253.064V150.813H246.464V148.067H239.992V150.813H233.4V148.067H226.92V150.813H220.328V148.067H213.848V150.813H207.256V148.067H205.04L198.616 199.764L287.84 199.393L281.2 148.067Z" fill="white"/>
<path d="M295.392 185.592H292.648V189.36H283.592V185.592H274.696V189.36H265.632V185.592H256.736V189.36H247.68V185.592H238.784V189.36H229.72V185.592H220.824V189.36H211.76V185.592H202.864V189.36H193.808V185.592H190.76L181.928 256.622L304.528 256.106L295.392 185.592Z" fill="white"/>
<path d="M340.68 248.255C338.784 246.105 337 243.907 335.016 241.813C334.913 241.709 334.82 241.596 334.736 241.475C334.083 241.05 333.401 240.671 332.696 240.34C332.568 240.299 332.152 240.13 331.728 239.969C330.928 239.679 330.128 239.365 329.328 239.043C324.36 237.03 319.896 234.695 316.144 230.725C314.088 228.551 312.448 226.015 310.32 223.905C310.264 223.977 309.848 223.752 309.648 223.591L308.048 223.381C307.192 223.381 306.328 223.381 305.472 223.438C304.248 223.494 303.024 223.591 301.8 223.704C297 230.725 291 240.316 288.344 241.58C284.224 243.545 246.256 253.658 243.456 253.038C240.656 252.418 226 253.634 222.32 253.497C218.64 253.36 211.976 251.718 202.32 247.249C192.664 242.78 187.4 242.755 175.776 239.027C164.152 235.299 156.36 233.882 149.56 239.615C142.76 245.348 124.08 233.246 118.256 231.522C112.432 229.799 101.296 219.871 93.696 224.501C86.096 229.131 79.776 231.337 70.28 239.615C60.784 247.893 41.944 263.893 41.944 263.893H362.744L359.056 257.411C355.541 257.195 352.105 256.274 348.949 254.702C345.793 253.13 342.982 250.938 340.68 248.255V248.255Z" fill="white"/>
<path d="M34.5439 169.1C34.5439 169.1 43.8799 152.19 69.1759 137.599C69.1759 137.599 89.7679 135.836 113.016 146.038C113.016 146.038 117.728 153.913 112.368 157.022C107.008 160.13 102.568 153.881 102.568 153.881C102.568 153.881 101.576 163.399 94.5679 163.673C87.5599 163.947 85.5279 157.022 85.5279 157.022C85.5279 157.022 84.8399 165.759 76.4959 167.965C69.2799 169.905 64.7999 163.673 64.7999 163.673C64.7999 163.673 63.3599 170.856 56.8719 172.925C51.6559 174.584 48.0719 170.067 48.0719 170.067C48.0719 170.067 46.5759 177.861 41.0399 177.861C36.2799 177.861 34.5439 169.1 34.5439 169.1Z" fill="white"/>
<path d="M200 300C285.666 300 355.112 295.919 355.112 290.885C355.112 285.85 285.666 281.769 200 281.769C114.334 281.769 44.8881 285.85 44.8881 290.885C44.8881 295.919 114.334 300 200 300Z" fill="white"/>
<path d="M307.2 251.162C307.2 251.162 310.68 246.033 313.848 244.6C317.016 243.166 317.528 237.715 319.248 237.417C320.968 237.119 322.864 242.144 325.872 243.609C328.88 245.075 333.432 251.13 333.432 251.13L307.2 251.162Z" fill="#E3056D"/>
<path opacity="0.8" d="M307.2 251.162C307.2 251.162 310.68 246.033 313.848 244.6C317.016 243.166 317.528 237.715 319.248 237.417C320.968 237.119 322.864 242.144 325.872 243.609C328.88 245.075 333.432 251.13 333.432 251.13L307.2 251.162Z" fill="white"/>
<path d="M332.496 288.09H307.184L303.984 251.13H335.696L332.496 288.09Z" fill="#E3056D"/>
<path d="M337.224 249.214H302.448V253.103H337.224V249.214Z" fill="#E3056D"/>
<path opacity="0.2" d="M337.224 249.214H302.448V253.103H337.224V249.214Z" fill="white"/>
<path d="M318.344 251.951C320.648 255.591 330.512 270.609 336.624 271.704L337.376 269.884C337.376 269.884 331.904 270.544 319.776 251.033C319.661 250.844 319.479 250.706 319.266 250.648C319.053 250.589 318.826 250.615 318.632 250.719V250.719C318.529 250.778 318.439 250.857 318.369 250.952C318.298 251.047 318.247 251.156 318.22 251.272C318.193 251.388 318.19 251.508 318.211 251.625C318.233 251.742 318.278 251.853 318.344 251.951V251.951Z" fill="#263238"/>
<path d="M282.328 240.291C282.588 240.209 282.862 240.179 283.133 240.205C283.404 240.231 283.668 240.311 283.908 240.441C284.148 240.57 284.36 240.747 284.531 240.961C284.702 241.175 284.829 241.421 284.904 241.685L289.224 256.896L294.824 254.633C294.824 254.633 298.208 267.315 291.816 269.32C285.6 271.277 280.8 259.569 280.8 259.569L286.512 257.958L281.056 242.933C280.964 242.675 280.924 242.402 280.939 242.129C280.953 241.856 281.022 241.589 281.14 241.343C281.259 241.097 281.425 240.877 281.629 240.697C281.833 240.516 282.07 240.378 282.328 240.291V240.291Z" fill="#E3056D"/>
<path opacity="0.4" d="M291.84 269.32C285.6 271.277 280.8 259.569 280.8 259.569L286.512 257.958C286.512 257.958 287.496 259.649 288.6 259.231C289.704 258.812 289.256 256.871 289.256 256.871L294.856 254.609C294.856 254.609 298.232 267.339 291.84 269.32Z" fill="white"/>
<path d="M339.736 291.215C336.592 289.645 333.376 288.163 332.344 288.09C330.136 287.946 328.864 286.955 327.288 285.063C325.712 283.17 325.072 280.98 322.224 277.936C319.376 274.893 322.536 273.669 316.52 272.888C310.504 272.106 312.832 272.598 309.136 269.916C305.44 267.235 306.192 267.243 301.864 265.326C297.536 263.41 300.064 262.685 295 262.258C291.504 261.96 285.976 263.812 283.104 265.874C281.832 266.784 281.184 268.29 279.904 269.095C278.488 270.005 276.288 268.29 276.52 271.358C276.674 272.14 276.709 272.94 276.624 273.733C276.216 275.456 269.168 275.448 267.376 275.988C266.949 276.065 266.566 276.3 266.304 276.648C265.896 277.381 266.512 278.677 265.72 278.943C265.472 279.032 265.192 278.943 264.92 278.983C263.968 279.168 264.216 280.892 263.32 281.286C262.424 281.681 261.392 280.876 260.4 281.286C259.64 281.576 259.384 282.607 258.72 283.017C257.56 283.726 256.36 284.249 255.216 285.006C253.232 286.311 251.512 287.913 249.384 289.033L243.688 290.595L241.984 291.199L339.736 291.215Z" fill="#E3056D"/>
<path opacity="0.8" d="M339.736 291.215C336.592 289.645 333.376 288.163 332.344 288.09C330.136 287.946 328.864 286.955 327.288 285.063C325.712 283.17 325.072 280.98 322.224 277.936C319.376 274.893 322.536 273.669 316.52 272.888C310.504 272.106 312.832 272.598 309.136 269.916C305.44 267.235 306.192 267.243 301.864 265.326C297.536 263.41 300.064 262.685 295 262.258C291.504 261.96 285.976 263.812 283.104 265.874C281.832 266.784 281.184 268.29 279.904 269.095C278.488 270.005 276.288 268.29 276.52 271.358C276.674 272.14 276.709 272.94 276.624 273.733C276.216 275.456 269.168 275.448 267.376 275.988C266.949 276.065 266.566 276.3 266.304 276.648C265.896 277.381 266.512 278.677 265.72 278.943C265.472 279.032 265.192 278.943 264.92 278.983C263.968 279.168 264.216 280.892 263.32 281.286C262.424 281.681 261.392 280.876 260.4 281.286C259.64 281.576 259.384 282.607 258.72 283.017C257.56 283.726 256.36 284.249 255.216 285.006C253.232 286.311 251.512 287.913 249.384 289.033L243.688 290.595L241.984 291.199L339.736 291.215Z" fill="white"/>
<path d="M272.6 276.559C272.604 276.618 272.604 276.678 272.6 276.737V276.737C272.577 279.464 271.789 282.13 270.328 284.427C270.208 284.612 270.088 284.797 269.952 284.982C269.112 286.183 268.098 287.25 266.944 288.147C266.688 288.357 266.421 288.553 266.144 288.735C266.081 288.783 266.014 288.826 265.944 288.864L265.68 289.033C265.543 289.126 265.402 289.212 265.256 289.29C265.032 289.419 264.8 289.548 264.568 289.661C261.783 291.072 258.62 291.543 255.548 291.004C252.476 290.464 249.658 288.943 247.512 286.665C246.533 285.648 245.711 284.489 245.072 283.227C244.018 281.162 243.469 278.873 243.472 276.551V276.503C243.472 276.092 243.472 275.698 243.528 275.279C243.684 273.391 244.209 271.552 245.072 269.868C245.285 269.445 245.52 269.034 245.776 268.636C246.614 267.328 247.651 266.159 248.848 265.173C249.228 264.86 249.626 264.57 250.04 264.304C250.184 264.2 250.334 264.103 250.488 264.014C251.633 263.305 252.872 262.763 254.168 262.403L254.504 262.315C255.661 262.026 256.848 261.88 258.04 261.88C258.413 261.88 258.781 261.896 259.144 261.928H259.424C261.042 262.083 262.622 262.513 264.096 263.201L264.28 263.289C266.47 264.332 268.366 265.91 269.795 267.879C271.224 269.848 272.142 272.146 272.464 274.562V274.562C272.558 275.224 272.603 275.891 272.6 276.559Z" fill="#E3056D"/>
<path opacity="0.6" d="M272.6 276.559C272.603 279.284 271.849 281.955 270.424 284.271C268.999 286.587 266.96 288.457 264.536 289.669V289.669C264.204 289.399 263.931 289.061 263.736 288.678C266.424 280.787 263.736 276.559 263.736 276.559V276.479L263.928 275.215V274.981C264.344 272.638 265.392 268.249 267.664 265.592C269.213 266.963 270.454 268.65 271.305 270.541C272.156 272.432 272.598 274.484 272.6 276.559V276.559Z" fill="white"/>
<path opacity="0.6" d="M246.872 274.023C246.872 274.023 244.32 276.592 245.072 283.235C243.551 280.246 243.096 276.821 243.784 273.535C244.471 270.249 246.259 267.3 248.848 265.181C247.436 267.905 246.755 270.953 246.872 274.023V274.023Z" fill="white"/>
<path opacity="0.2" d="M267.704 265.592C264.504 269.328 263.704 276.559 263.704 276.559C254.904 278.726 246.848 274.023 246.848 274.023C246.731 270.948 247.412 267.895 248.824 265.165C251.504 262.971 254.873 261.807 258.327 261.882C261.781 261.957 265.096 263.267 267.68 265.576L267.704 265.592Z" fill="white"/>
<path opacity="0.2" d="M264.528 289.669C261.746 291.07 258.591 291.534 255.528 290.993C252.464 290.452 249.654 288.935 247.512 286.665C250.24 288.276 255.816 290.587 263.728 288.67C263.922 289.056 264.195 289.396 264.528 289.669V289.669Z" fill="white"/>
<g opacity="0.2">
<path opacity="0.2" d="M264.288 263.313C263.907 263.851 263.557 264.41 263.24 264.988C262.648 266.098 262.137 267.25 261.712 268.435C261.264 269.618 260.912 270.85 260.592 272.05C260.272 273.25 260 274.514 259.792 275.762C259.876 274.492 260.052 273.23 260.32 271.986C260.591 270.736 260.938 269.504 261.36 268.298C261.796 267.1 262.331 265.942 262.96 264.835C263.309 264.277 263.688 263.74 264.096 263.225L264.288 263.313Z" fill="black"/>
<path opacity="0.2" d="M259.424 261.96C259.224 262.323 259.04 262.693 258.864 263.064C258.277 264.313 257.792 265.608 257.416 266.937C256.992 268.257 256.672 269.61 256.368 270.963C256.064 272.316 255.808 273.685 255.568 275.054C255.649 273.66 255.815 272.272 256.064 270.899C256.303 269.522 256.624 268.162 257.024 266.824C257.423 265.477 257.945 264.169 258.584 262.919C258.76 262.589 258.944 262.258 259.136 261.944L259.424 261.96Z" fill="black"/>
<path opacity="0.2" d="M254.504 262.331L254.256 262.983C253.815 264.179 253.454 265.403 253.176 266.647C252.864 267.887 252.624 269.143 252.376 270.407C252.128 271.672 251.952 272.936 251.768 274.208C251.796 272.92 251.9 271.635 252.08 270.359C252.255 269.073 252.495 267.796 252.8 266.534C253.093 265.272 253.486 264.036 253.976 262.838C254.04 262.693 254.104 262.54 254.176 262.395L254.504 262.331Z" fill="black"/>
<path opacity="0.2" d="M250.488 264.022C250.216 264.924 249.96 265.826 249.776 266.744C249.592 267.662 249.376 268.805 249.216 269.844C249.056 270.882 248.944 271.929 248.848 272.984C248.794 271.926 248.815 270.866 248.912 269.812C249.013 268.754 249.171 267.703 249.384 266.663C249.563 265.868 249.781 265.084 250.04 264.312C250.185 264.208 250.334 264.111 250.488 264.022V264.022Z" fill="black"/>
<path opacity="0.2" d="M267.824 281.447C267.866 282.964 267.669 284.478 267.24 285.932C267.026 286.657 266.759 287.365 266.44 288.05C266.336 288.284 266.216 288.517 266.096 288.743C266.033 288.791 265.966 288.834 265.896 288.872C266.334 287.9 266.679 286.889 266.928 285.852C267.303 284.418 267.465 282.937 267.408 281.455C267.385 279.974 267.159 278.502 266.736 277.083C266.321 275.648 265.73 274.271 264.976 272.984C265.87 274.206 266.561 275.566 267.024 277.01C267.511 278.44 267.781 279.936 267.824 281.447V281.447Z" fill="black"/>
<path opacity="0.2" d="M270.696 281.029L270.656 282.244L270.488 283.452C270.452 283.78 270.396 284.106 270.32 284.427C270.2 284.612 270.08 284.797 269.944 284.982C270.063 284.466 270.144 283.941 270.184 283.412L270.304 282.22V281.029C270.332 280.629 270.332 280.228 270.304 279.829C270.264 279.434 270.264 279.024 270.192 278.645C270.01 277.061 269.614 275.508 269.016 274.031C268.438 272.538 267.646 271.138 266.664 269.876C267.771 271.051 268.662 272.414 269.296 273.902C269.95 275.393 270.387 276.972 270.592 278.589C270.656 278.991 270.648 279.394 270.68 279.805C270.714 280.212 270.719 280.621 270.696 281.029V281.029Z" fill="black"/>
<path opacity="0.2" d="M272.6 276.559C272.604 276.618 272.604 276.678 272.6 276.737L272.552 276.463C272.212 274.794 271.675 273.172 270.952 271.631C270.244 270.072 269.311 268.625 268.184 267.339C269.429 268.537 270.457 269.943 271.224 271.494C271.733 272.501 272.156 273.549 272.488 274.627V274.627C272.571 275.268 272.608 275.913 272.6 276.559V276.559Z" fill="black"/>
<path opacity="0.2" d="M246.16 271.704C245.518 272.439 244.967 273.25 244.52 274.12C244.104 274.894 243.754 275.702 243.472 276.535C243.472 276.125 243.472 275.73 243.528 275.311C243.742 274.845 243.985 274.394 244.256 273.959C244.755 273.101 245.399 272.338 246.16 271.704V271.704Z" fill="black"/>
<path opacity="0.2" d="M246.848 267.806C246.24 268.499 245.648 269.183 245.072 269.876C245.285 269.453 245.52 269.042 245.776 268.644C246.118 268.345 246.475 268.065 246.848 267.806V267.806Z" fill="black"/>
<path opacity="0.2" d="M246.848 277.131C248.176 277.647 249.52 278.097 250.848 278.5C252.205 278.905 253.583 279.236 254.976 279.491C257.748 280.092 260.62 280.056 263.376 279.386C262.034 279.892 260.617 280.164 259.184 280.191C257.75 280.219 256.316 280.106 254.904 279.853C253.499 279.586 252.114 279.22 250.76 278.758C249.417 278.316 248.109 277.772 246.848 277.131V277.131Z" fill="black"/>
<path opacity="0.2" d="M246.848 280.634C248.185 281.168 249.553 281.62 250.944 281.987C252.331 282.355 253.743 282.624 255.168 282.792C256.589 282.988 258.024 283.055 259.456 282.993L260.528 282.945L261.6 282.816C262.32 282.768 263.008 282.558 263.728 282.454C262.349 282.912 260.92 283.198 259.472 283.307C258.021 283.411 256.564 283.373 255.12 283.195C253.679 283.003 252.256 282.696 250.864 282.277C249.476 281.86 248.131 281.31 246.848 280.634V280.634Z" fill="black"/>
<path opacity="0.2" d="M247.2 283.662C248.459 284.252 249.761 284.742 251.096 285.127C252.426 285.51 253.785 285.78 255.16 285.932C255.848 286.045 256.536 286.061 257.224 286.11C257.912 286.158 258.608 286.11 259.304 286.069C260.689 285.991 262.065 285.791 263.416 285.473C262.095 285.941 260.722 286.247 259.328 286.383C257.925 286.524 256.511 286.508 255.112 286.335C253.717 286.162 252.342 285.849 251.008 285.401C249.677 284.97 248.399 284.386 247.2 283.662V283.662Z" fill="black"/>
<path opacity="0.2" d="M247.8 285.94C248.988 286.493 250.215 286.953 251.472 287.317C252.722 287.694 254.001 287.963 255.296 288.123C256.588 288.316 257.897 288.367 259.2 288.276L260.176 288.203L261.136 288.042C261.792 287.978 262.408 287.752 263.056 287.623C261.829 288.122 260.54 288.447 259.224 288.59C257.896 288.749 256.553 288.749 255.224 288.59C253.91 288.421 252.616 288.122 251.36 287.696C250.11 287.252 248.915 286.662 247.8 285.94V285.94Z" fill="black"/>
</g>
<path d="M91.0319 253.522C91.0319 253.522 93.8799 249.214 98.9439 248.9C104.008 248.585 108.28 255.084 108.28 255.084H106.68C106.68 255.084 102.592 250.647 99.6639 250.647C96.7359 250.647 93.8879 254.311 93.8879 254.311L91.0319 253.522Z" fill="#263238"/>
<path d="M48.064 287.519C49.816 284.58 69.44 286.488 73.872 284.733L76.272 288.88C76.272 288.88 72.888 290.764 67.272 290.096C61.656 289.427 53.168 289.25 50.952 291.215L48.064 287.519Z" fill="#263238"/>
<path opacity="0.3" d="M48.064 287.519C49.816 284.58 69.44 286.488 73.872 284.733L76.272 288.88C76.272 288.88 72.888 290.764 67.272 290.096C61.656 289.427 53.168 289.25 50.952 291.215L48.064 287.519Z" fill="black"/>
<path d="M130.72 278.556C130.56 279.257 130.384 279.941 130.184 280.61C128.584 286.094 126.12 290.53 124.328 291.215H73.456C72.7564 291.215 72.0662 291.054 71.438 290.744C70.8098 290.434 70.2605 289.984 69.832 289.427L69.792 289.371C69.6041 289.122 69.4457 288.852 69.32 288.566C65.808 281.182 62.264 266.413 67.248 259.682C67.7693 258.98 68.3708 258.342 69.04 257.781L69.184 257.669C70.2395 256.802 71.4076 256.084 72.656 255.535H72.696C76.2 253.924 80.504 253.208 84.696 252.893C85.92 252.797 87.096 252.74 88.328 252.716C91.448 252.628 94.36 252.716 96.68 252.773C104.856 252.982 111.288 255.43 115.672 255.003C117.282 254.834 118.909 254.965 120.472 255.39C120.922 255.517 121.365 255.667 121.8 255.841C123.795 256.69 125.651 257.838 127.304 259.247C132.312 263.249 132.384 271.454 130.72 278.556Z" fill="#263238"/>
<path opacity="0.1" d="M130.72 278.556C130.56 279.257 130.384 279.941 130.184 280.61C128.584 286.094 126.12 290.53 124.328 291.215H73.456C72.7564 291.215 72.0662 291.054 71.438 290.744C70.8098 290.434 70.2605 289.984 69.832 289.427L69.792 289.371C69.6041 289.122 69.4457 288.852 69.32 288.566C65.808 281.182 62.264 266.413 67.248 259.682C67.7693 258.98 68.3708 258.342 69.04 257.781L69.184 257.669C70.2395 256.802 71.4076 256.084 72.656 255.535H72.696C76.2 253.924 80.504 253.208 84.696 252.893C85.92 252.797 87.096 252.74 88.328 252.716C91.448 252.628 94.36 252.716 96.68 252.773C104.856 252.982 111.288 255.43 115.672 255.003C117.282 254.834 118.909 254.965 120.472 255.39C120.922 255.517 121.365 255.667 121.8 255.841C123.795 256.69 125.651 257.838 127.304 259.247C132.312 263.249 132.384 271.454 130.72 278.556Z" fill="white"/>
<path opacity="0.2" d="M122.928 278.049C119.288 278.049 112.008 279.797 101.248 277.413C96.2313 276.213 91.0096 276.175 85.976 277.3C85.856 275.69 85.728 273.894 85.584 271.945C84.632 258.86 77.216 253.369 72.696 255.543H72.656C71.4296 256.133 70.2662 256.848 69.184 257.677L69.04 257.789C68.3708 258.35 67.7693 258.988 67.248 259.69C62.264 266.422 65.808 281.19 69.32 288.574C69.4457 288.86 69.6041 289.13 69.792 289.379L69.832 289.435C70.2644 289.929 70.7962 290.324 71.3921 290.595C71.9879 290.865 72.6342 291.006 73.288 291.005H82.4C86.12 291.005 86.56 287.575 86.144 280.207C86.776 279.845 87.552 279.402 88.416 278.806C90.68 277.324 99.488 278.057 103.288 279.491C107.088 280.924 117.056 281.56 121.88 280.771C124.625 280.361 127.41 280.31 130.168 280.618C130.368 279.95 130.544 279.265 130.704 278.565C129.056 278.379 125.6 278.049 122.928 278.049Z" fill="black"/>
<path opacity="0.2" d="M89.8559 259.569C92.0719 267.694 93.5919 270.56 94.1759 271.358C94.7599 272.155 110.872 274.079 113.896 274.071C117.386 274.04 120.867 273.695 124.296 273.041C126.352 272.517 127.016 262.097 121.832 255.849C121.397 255.676 120.954 255.525 120.504 255.398C123.328 261.775 123.392 269.586 123.056 270.697C122.576 272.243 117.832 272.018 115.616 271.97C113.4 271.921 99.6159 271.06 98.2079 270.496C96.8484 269.928 95.6912 268.96 94.8879 267.718C93.7759 266.285 93.6239 261.348 91.6159 257.089C90.7636 255.47 89.6528 254.004 88.3279 252.749C87.1359 252.749 85.9279 252.829 84.6959 252.926C85.961 253.62 87.0715 254.567 87.959 255.71C88.8464 256.852 89.492 258.166 89.8559 259.569V259.569Z" fill="black"/>
<path d="M73.872 267.05L69.44 268.145C69.44 268.145 66.296 277.228 68.176 281.029C70.056 284.829 55.376 290.12 48.064 287.47L50.928 291.166C50.928 291.166 68.336 290.063 71.656 283.396C74.976 276.729 70.232 275.698 69.92 273.822C69.608 271.945 73.872 267.05 73.872 267.05Z" fill="#263238"/>
<path opacity="0.1" d="M73.872 267.05L69.44 268.145C69.44 268.145 66.296 277.228 68.176 281.029C70.056 284.829 55.376 290.12 48.064 287.47L50.928 291.166C50.928 291.166 68.336 290.063 71.656 283.396C74.976 276.729 70.232 275.698 69.92 273.822C69.608 271.945 73.872 267.05 73.872 267.05Z" fill="white"/>
<path d="M113.016 79.7187C113.016 79.7187 95.8959 70.0558 92.3519 67.5757C88.8079 65.0955 69.8479 46.3576 68.7919 45.8342C68.7919 45.8342 69.4959 43.6923 67.9039 42.4441C66.3119 41.196 60.1039 37.0974 59.2239 37.0974C58.3439 37.0974 56.0239 45.8342 56.3839 47.9761C56.7439 50.1181 65.4239 50.6495 65.4239 50.6495C65.4239 50.6495 83.4959 71.8273 86.3279 74.8067C89.1599 77.7861 108.472 90.4364 108.472 90.4364L113.016 79.7187Z" fill="#FFBE9D"/>
<path d="M120.04 81.4983C120.04 81.4983 123.792 89.1239 114.68 101.235L94.5919 86.37L102.592 71.7549L120.04 81.4983Z" fill="#E3056D"/>
<path opacity="0.6" d="M114.68 101.235L105.192 94.213L103.952 93.295L98.6 89.3816L94.6 86.4102L97.552 81.0393L99.2 77.9472L102.6 71.7549L105.88 73.5908L108.712 75.2013L120.024 81.5305C120.395 82.4144 120.625 83.3521 120.704 84.3086C121.08 87.5215 120.536 93.448 114.68 101.235Z" fill="white"/>
<path opacity="0.2" d="M114.68 101.235L105.192 94.213C108.448 87.4329 116.872 85.0413 120.72 84.2764C121.08 87.5215 120.536 93.448 114.68 101.235Z" fill="black"/>
<g opacity="0.2">
<path opacity="0.2" d="M108.728 75.1691L105.896 76.8279V73.5908L108.728 75.1691Z" fill="white"/>
<path opacity="0.2" d="M102.568 78.9456L99.0159 83.9623L97.5439 80.999L99.2159 77.9471L102.568 78.9456Z" fill="white"/>
<path opacity="0.2" d="M105.192 86.4907L103.952 93.295L98.6 89.3413L105.192 86.4907Z" fill="white"/>
<path opacity="0.2" d="M107.648 82.6095L109.624 87.7067L113.728 82.0861L107.648 82.6095Z" fill="white"/>
</g>
<path d="M157.376 77.8908C157.376 77.8908 174.496 68.2279 178.04 65.7478C181.584 63.2676 200.544 44.5297 201.608 44.0063C201.608 44.0063 200.896 41.8644 202.488 40.6163C204.08 39.3681 210.288 35.2695 211.168 35.2695C212.048 35.2695 214.368 44.0063 214.008 46.1483C213.648 48.2902 204.968 48.8216 204.968 48.8216C204.968 48.8216 186.896 70.0075 184.064 72.9788C181.232 75.9502 161.92 88.5763 161.92 88.5763L157.376 77.8908Z" fill="#FFBE9D"/>
<path d="M136.92 179.931C136.92 179.931 136.552 186.01 136 194.143C135.632 199.2 135.2 205.038 134.68 210.683C134.008 218.268 133.248 225.499 132.488 230.009C131.792 234.14 122.552 285.441 122.552 285.441H116.36C118.312 237.602 121.336 219.049 121.448 216.263C121.448 215.353 121.52 214.089 121.56 212.583C121.68 207.124 121.784 198.5 121.848 192.227C121.896 187.701 121.92 184.408 121.92 184.408L136.92 179.931Z" fill="#FFBE9D"/>
<path d="M160.8 218.639C160.584 222.818 158.112 285.216 158.112 285.216H151.304C147.824 235.516 149.144 218.26 148.52 214.814C147.456 208.952 146.456 201.245 145.768 195.488C145.216 190.89 144.872 187.581 144.872 187.581L158.752 181.541C158.752 181.541 159.592 188.788 160.224 197.469C160.536 201.817 160.808 206.544 160.888 210.941C160.952 213.694 160.936 216.32 160.8 218.639Z" fill="#FFBE9D"/>
<path opacity="0.2" d="M121.816 192.211L136 194.143C135.632 199.2 135.2 205.038 134.68 210.683L121.528 212.583C121.648 207.108 121.752 198.483 121.816 192.211Z" fill="black"/>
<path opacity="0.2" d="M160.896 210.973L148.528 214.806C147.464 208.944 146.464 201.237 145.776 195.48L160.232 197.461C160.544 201.817 160.8 206.544 160.896 210.973Z" fill="black"/>
<path d="M124 283.509H115.816C115.682 283.511 115.552 283.558 115.448 283.642C115.344 283.727 115.27 283.844 115.24 283.976L113.92 289.999C113.865 290.257 113.915 290.527 114.057 290.749C114.2 290.971 114.424 291.127 114.68 291.183C114.755 291.191 114.83 291.191 114.904 291.183C117.544 291.142 119.472 290.973 122.784 290.973C124.832 290.973 131 291.191 133.816 291.191C136.632 291.191 137.016 288.388 135.856 288.123C130.672 286.987 126.768 285.417 125.112 283.919C124.807 283.644 124.409 283.497 124 283.509Z" fill="#E3056D"/>
<path d="M158.624 283.299H150.456C150.322 283.298 150.192 283.343 150.087 283.426C149.982 283.51 149.909 283.627 149.88 283.758L148.552 289.79C148.526 289.92 148.527 290.055 148.553 290.185C148.58 290.316 148.632 290.439 148.706 290.549C148.781 290.66 148.876 290.754 148.987 290.826C149.098 290.899 149.222 290.949 149.352 290.973H149.568C152.216 290.933 154.136 290.772 157.456 290.772C159.496 290.772 165.664 290.981 168.488 290.981C171.312 290.981 171.688 288.179 170.52 287.921C165.336 286.786 161.44 285.208 159.784 283.71C159.627 283.568 159.444 283.458 159.245 283.388C159.046 283.318 158.835 283.287 158.624 283.299Z" fill="#E3056D"/>
<path d="M137.48 207.164C137.544 206.616 137.608 206.045 137.672 205.4C138.472 197.155 139.344 187.258 140.072 177.724C142.832 185.197 144.024 195.705 145.464 207.164H162.264C160.872 177.507 157.224 153.382 155.288 143.091H119.656C119.608 146.779 119.2 182.548 118.28 207.164H137.48Z" fill="#263238"/>
<path opacity="0.2" d="M137.48 207.164C137.544 206.616 137.608 206.045 137.672 205.4C138.472 197.155 139.344 187.258 140.072 177.724C142.832 185.197 144.024 195.705 145.464 207.164H162.264C160.872 177.507 157.224 153.382 155.288 143.091H119.656C119.608 146.779 119.2 182.548 118.28 207.164H137.48Z" fill="white"/>
<path d="M142.4 69.6452C142.322 69.9698 142.226 70.2897 142.112 70.6034C141.475 72.394 140.315 73.949 138.784 75.0644C138.399 75.3487 137.993 75.6018 137.568 75.8214C135.946 76.6949 134.084 77.0103 132.267 76.7195C130.45 76.4287 128.777 75.5477 127.504 74.2109C124.136 70.7886 124.224 66.8349 123.84 60.1434C123.739 58.7054 123.971 57.2635 124.52 55.932C124.979 54.8204 125.651 53.8108 126.498 52.9607C127.344 52.1106 128.349 51.4367 129.454 50.9776C130.56 50.5185 131.744 50.2831 132.94 50.2848C134.136 50.2865 135.32 50.5254 136.424 50.9878C142.92 53.6612 143.816 63.6139 142.4 69.6452Z" fill="#FFBE9D"/>
<path opacity="0.2" d="M138.76 75.0644C138.375 75.3486 137.969 75.6017 137.544 75.8213C136.43 76.4192 135.197 76.7584 133.936 76.8141C132.675 76.8699 131.418 76.6407 130.256 76.1434C130.557 75.3391 130.957 74.5762 131.448 73.8727C133.948 73.5571 136.486 73.9707 138.76 75.0644V75.0644Z" fill="black"/>
<path d="M125.376 83.7449C128.656 86.7404 136.68 85.6372 136.68 85.6372C136.68 85.6372 141.688 84.2522 140.632 82.6819C137.688 82.1907 136.256 80.8057 135.664 79.0262C135.344 77.9268 135.244 76.7747 135.368 75.6361C135.415 75.0011 135.498 74.3694 135.616 73.7438L125.696 66.3517C126.992 71.2314 128.584 80.2099 125.376 83.7449Z" fill="#FFBE9D"/>
<path d="M138.76 63.5575L140.192 64.0971L139.48 61.1499C139.48 61.1499 141.576 57.9289 139.48 55.1347C139.48 55.1347 145.272 53.3632 142 50.3033C140.784 49.1599 139.272 50.3033 135.272 48.5559C133.104 47.5977 126.32 47.5252 125.984 50.3033C125.984 50.3033 121.096 50.3033 120.568 58.6778C120.414 61.1314 120.797 63.5892 121.692 65.8769C122.586 68.1646 123.97 70.2263 125.744 71.9159C125.744 71.9159 131.648 73.317 134.544 70.9335C137.44 68.55 138.76 63.5575 138.76 63.5575Z" fill="#263238"/>
<path d="M134.984 64.0326C135.109 64.6622 135.372 65.2557 135.754 65.7698C136.136 66.2839 136.627 66.7056 137.192 67.004C138.544 67.5837 139.44 65.6673 139.24 63.6542C139.056 61.8665 138.136 59.3542 136.688 59.6924C135.24 60.0306 134.512 62.2289 134.984 64.0326Z" fill="#FFBE9D"/>
<path opacity="0.2" d="M140.104 177.684C139.344 187.218 138.504 197.139 137.704 205.384C136.488 193.475 135 184.988 135 184.988C135 184.988 133.608 183.836 129.776 177.684C125.944 171.532 129.776 160.033 129.776 160.033C129.6 170.711 140.104 177.684 140.104 177.684Z" fill="black"/>
<path d="M163.504 205.771L162.768 208.565H144.88V205.98L163.504 205.771Z" fill="#E3056D"/>
<path d="M138.344 206.157L137.808 208.742H117.552L116.328 206.157H138.344Z" fill="#E3056D"/>
<path d="M140.84 81.8042C140.84 81.8042 137.928 77.1741 130.592 76.844C123.256 76.5138 122.696 81.5949 122.696 81.5949L140.84 81.8042Z" fill="#E3056D"/>
<path opacity="0.5" d="M140.84 81.8042C140.84 81.8042 137.928 77.1741 130.592 76.844C123.256 76.5138 122.696 81.5949 122.696 81.5949L140.84 81.8042Z" fill="white"/>
<path d="M114.496 78.9135C116.709 103.983 116.441 129.211 113.696 154.227L156.68 151.586C156.2 107.435 150.32 79.6221 150.32 79.6221C150.32 79.6221 139.24 81.9653 130.224 81.6271C124.89 81.3778 119.608 80.4664 114.496 78.9135Z" fill="#E3056D"/>
<path d="M150.352 79.6543C150.352 79.6543 156.096 93.1662 156.712 106.839C157.328 120.512 133.384 139.306 133.384 139.306C133.384 139.306 114.928 126.519 100.688 127.679C86.448 128.838 82.016 133.935 82.016 133.935C82.016 133.935 93.088 110.092 112.368 101.782C112.368 101.782 108.368 88.0529 114.496 78.9779C114.496 78.9135 127.824 83.3101 150.352 79.6543Z" fill="#E3056D"/>
<path opacity="0.6" d="M156.712 106.839C156.732 107.225 156.732 107.612 156.712 107.999C156.679 108.596 156.607 109.191 156.496 109.778C156.235 111.161 155.825 112.511 155.272 113.804V113.804C153.562 117.589 151.332 121.113 148.648 124.273C147.288 125.947 145.848 127.558 144.424 129.056C140.975 132.716 137.287 136.141 133.384 139.306C128.537 136.077 123.384 133.339 118 131.133C116.36 130.473 114.656 129.853 112.92 129.329C108.977 128.045 104.834 127.499 100.696 127.719C96.746 127.984 92.8454 128.752 89.0879 130.006C88.4399 130.231 87.8399 130.473 87.2879 130.706L86.7919 130.924C85.5895 131.449 84.4425 132.093 83.3679 132.848C83.2479 132.929 83.1359 133.017 83.0319 133.098C82.9279 133.179 82.6559 133.388 82.5119 133.517L82.3199 133.686C82.2709 133.725 82.2254 133.768 82.1839 133.815L82.0879 133.911L82.0319 133.968C82.0319 133.927 82.1279 133.758 82.2719 133.468L82.4959 133.026C82.7199 132.575 83.0319 131.971 83.4399 131.238L83.6159 130.916L83.9279 130.36C84.0319 130.167 84.1439 129.966 84.2639 129.764C84.7279 128.959 85.2719 128.025 85.8639 127.035C89.1524 121.678 93.0449 116.723 97.4639 112.266V112.266C99.0394 110.69 100.706 109.208 102.456 107.83C105.48 105.407 108.804 103.391 112.344 101.831C111.426 98.2944 111.009 94.6456 111.104 90.992C111.127 89.8412 111.221 88.6929 111.384 87.5537C111.751 84.4719 112.815 81.5159 114.496 78.9135C116.462 79.4887 118.467 79.9166 120.496 80.1938C123.147 80.6008 125.817 80.8696 128.496 80.999C133.884 81.2418 139.282 81.0506 144.64 80.4273C146.464 80.2287 148.36 79.9603 150.328 79.6221L150.512 80.073C151.785 83.2876 152.883 86.5698 153.8 89.905C154.152 91.1853 154.504 92.5542 154.84 93.9875C155.176 95.4209 155.432 96.7012 155.688 98.1265C156.217 101.005 156.559 103.916 156.712 106.839Z" fill="white"/>
<g opacity="0.2">
<path opacity="0.2" d="M151.2 117.815L148.672 124.321C147.312 125.996 145.872 127.606 144.448 129.104L139.304 119.441L151.2 117.815Z" fill="white"/>
<path opacity="0.2" d="M107.648 111.598L97.4879 112.186C99.0634 110.609 100.73 109.128 102.48 107.749L107.648 111.598Z" fill="white"/>
<path opacity="0.2" d="M119.368 85.8386L118.28 96.4677L111.08 90.984C111.103 89.8332 111.197 88.6849 111.36 87.5457L119.368 85.8386Z" fill="white"/>
<path opacity="0.2" d="M122.696 113.845L119.368 103.634L129.488 101.75L122.696 113.845Z" fill="white"/>
<path opacity="0.2" d="M140.104 104.117V111.759L147.368 109.134L140.104 104.117Z" fill="white"/>
<path opacity="0.2" d="M121.416 126.254L118 131.085C116.36 130.425 114.656 129.805 112.92 129.281L110.344 123.371L121.416 126.254Z" fill="white"/>
<path opacity="0.2" d="M95.464 118.926L100.688 121.156L95.464 124.74V118.926Z" fill="white"/>
<path opacity="0.2" d="M89.08 129.933C83.88 131.761 82.016 133.903 82.016 133.903C83.1769 131.52 84.4669 129.203 85.88 126.962L89.08 129.933Z" fill="white"/>
<path opacity="0.2" d="M131.768 120.045L127.272 124.74L134.072 125.939L131.768 120.045Z" fill="white"/>
<path opacity="0.2" d="M131.768 90.5734L137.056 97.74L140.84 89.6232L131.768 90.5734Z" fill="white"/>
<path opacity="0.2" d="M155.712 98.1587L148.952 93.6816L153.824 89.9373C154.512 92.4174 155.2 95.2116 155.712 98.1587Z" fill="white"/>
<path opacity="0.2" d="M156.704 107.999C156.558 110.013 156.071 111.988 155.264 113.837L152.432 106.823L156.704 107.999Z" fill="white"/>
<path opacity="0.2" d="M150.536 80.1052L146.256 84.5502L144.656 80.4595C146.48 80.2609 148.376 79.9925 150.344 79.6543L150.536 80.1052Z" fill="white"/>
<path opacity="0.2" d="M128.52 81.0072L125.376 87.7067L120.496 80.2261C123.155 80.6258 125.834 80.8865 128.52 81.0072V81.0072Z" fill="white"/>
</g>
<path opacity="0.2" d="M156.712 106.839C156.732 107.225 156.732 107.612 156.712 107.999C156.679 108.596 156.607 109.19 156.496 109.778C150.896 100.84 152.224 92.7555 152.224 92.7555L154.872 94.0197C155.176 95.3484 155.464 96.7334 155.72 98.1586C156.237 101.027 156.568 103.927 156.712 106.839V106.839Z" fill="black"/>
<path d="M134.024 44.0708C143.52 40.7774 145.904 53.5082 136.472 62.1162C127.04 70.7242 116.208 71.7791 114.976 67.4147C113.744 63.0503 119.528 49.1196 134.024 44.0708Z" fill="#E3056D"/>
<path d="M124.512 43.4265C129.384 43.4265 136.304 48.419 136.304 48.419C136.304 48.419 137.296 53.7336 132.44 58.404C127.584 63.0744 123.2 63.8152 120.496 62.0034C117.792 60.1916 117.04 53.1458 117.04 53.1458C117.287 52.3124 117.73 51.5513 118.331 50.9274C118.933 50.3034 119.676 49.8352 120.496 49.5624C120.496 49.5624 121.296 43.4829 124.512 43.4265Z" fill="#E3056D"/>
<path opacity="0.2" d="M132.44 58.404C127.584 63.0744 123.216 63.8152 120.496 62.0114C120.022 61.6765 119.619 61.2494 119.312 60.7553C117.552 58.0899 117.04 53.1699 117.04 53.1699C121.68 58.8066 127.056 52.9847 127.8 49.0551C128.02 48.1218 128.023 47.1498 127.808 46.2152C127.593 45.2806 127.166 44.4088 126.56 43.6681C129.76 44.3606 133.264 46.422 135.072 47.5896C135.872 48.0808 136.304 48.3948 136.304 48.3948C136.304 48.3948 137.296 53.7336 132.44 58.404Z" fill="black"/>
<path opacity="0.6" d="M132.44 58.404C127.584 63.0744 123.216 63.8152 120.496 62.0114C120.022 61.6765 119.619 61.2494 119.312 60.7553C124.176 62.2127 129.968 59.789 133.08 55.4326C134.73 53.1776 135.444 50.3651 135.072 47.5896C135.872 48.0808 136.304 48.3948 136.304 48.3948C136.304 48.3948 137.296 53.7336 132.44 58.404Z" fill="white"/>
<path d="M150.352 79.6543C150.352 79.6543 146.6 87.288 155.712 99.3907L175.8 84.5501L167.8 69.9351L150.352 79.6543Z" fill="#E3056D"/>
<path opacity="0.6" d="M175.8 84.5501L170.56 88.4233L162.808 94.1647L155.712 99.4149C155.248 98.8029 154.824 98.1989 154.424 97.6111C153.612 96.4131 152.874 95.1653 152.216 93.8748C150.593 90.877 149.697 87.5358 149.6 84.1234C149.546 82.5932 149.819 81.0691 150.4 79.6543L154.864 77.158L162.552 72.8661L165.928 70.9738L167.832 69.9109L175.8 84.5501Z" fill="white"/>
<g opacity="0.2">
<path opacity="0.2" d="M170.56 88.3991L162.808 94.1405L159.392 86.4907L170.56 88.3991Z" fill="white"/>
<path opacity="0.2" d="M169.84 76.0951L162.688 78.9456L162.504 72.8661L165.88 70.9738L169.84 76.0951Z" fill="white"/>
<path opacity="0.2" d="M157.376 82.086L149.6 84.1233C149.546 82.5931 149.819 81.0691 150.4 79.6542L154.864 77.158L157.376 82.086Z" fill="white"/>
<path opacity="0.2" d="M155.712 91.8536L154.4 97.5869C153.588 96.3889 152.85 95.1411 152.192 93.8506L155.712 91.8536Z" fill="white"/>
</g>
<path d="M205.152 217.101L192.8 216.118L196.88 163.689L209.272 164.663L205.152 217.101ZM195.336 213.88L202.944 214.475L206.648 166.862L199.048 166.266L195.336 213.88Z" fill="#263238"/>
<path d="M196.616 284.684L198.216 284.813C198.661 284.807 199.103 284.894 199.513 285.069C199.923 285.244 200.292 285.504 200.597 285.831C200.902 286.158 201.135 286.546 201.282 286.969C201.43 287.392 201.487 287.842 201.452 288.289C201.417 288.736 201.289 289.17 201.078 289.565C200.866 289.959 200.575 290.305 200.223 290.58C199.871 290.854 199.465 291.052 199.033 291.16C198.601 291.268 198.151 291.284 197.712 291.207L196.112 291.078C195.666 291.085 195.224 290.999 194.813 290.825C194.403 290.65 194.033 290.391 193.728 290.064C193.422 289.737 193.188 289.35 193.04 288.927C192.892 288.504 192.833 288.054 192.868 287.607C192.903 287.159 193.03 286.724 193.241 286.329C193.453 285.934 193.744 285.588 194.096 285.313C194.448 285.038 194.854 284.84 195.286 284.732C195.719 284.623 196.169 284.607 196.608 284.684H196.616Z" fill="#263238"/>
<path opacity="0.1" d="M193.136 287.567C193.084 288.212 193.224 288.858 193.537 289.423C193.85 289.988 194.322 290.447 194.895 290.742C195.467 291.037 196.114 291.154 196.752 291.078C197.391 291.003 197.993 290.738 198.482 290.318C198.971 289.898 199.325 289.341 199.5 288.719C199.674 288.096 199.661 287.435 199.462 286.82C199.263 286.204 198.887 285.662 198.382 285.262C197.877 284.862 197.265 284.621 196.624 284.572C196.199 284.532 195.769 284.578 195.362 284.708C194.955 284.839 194.577 285.049 194.252 285.329C193.927 285.608 193.661 285.95 193.469 286.334C193.277 286.719 193.164 287.138 193.136 287.567Z" fill="white"/>
<path d="M187.88 284L189.48 284.121C189.926 284.113 190.368 284.199 190.779 284.374C191.189 284.549 191.559 284.808 191.864 285.134C192.17 285.461 192.404 285.849 192.552 286.272C192.7 286.695 192.759 287.145 192.724 287.592C192.689 288.039 192.562 288.474 192.351 288.869C192.139 289.264 191.848 289.61 191.496 289.885C191.144 290.161 190.738 290.359 190.306 290.467C189.873 290.575 189.423 290.591 188.984 290.514L187.384 290.393C186.938 290.401 186.496 290.315 186.085 290.14C185.675 289.966 185.305 289.707 184.999 289.38C184.694 289.053 184.46 288.666 184.312 288.242C184.164 287.819 184.105 287.37 184.14 286.922C184.175 286.475 184.302 286.04 184.513 285.645C184.725 285.25 185.016 284.904 185.368 284.629C185.72 284.354 186.125 284.156 186.558 284.047C186.991 283.939 187.441 283.923 187.88 284V284Z" fill="#263238"/>
<path opacity="0.2" d="M184.4 286.883C184.35 287.527 184.49 288.173 184.805 288.737C185.119 289.301 185.592 289.759 186.165 290.052C186.738 290.346 187.384 290.461 188.022 290.385C188.66 290.309 189.261 290.043 189.749 289.623C190.238 289.202 190.591 288.646 190.765 288.023C190.939 287.4 190.925 286.74 190.726 286.125C190.527 285.51 190.151 284.968 189.645 284.569C189.14 284.169 188.529 283.929 187.888 283.879C187.03 283.815 186.182 284.094 185.529 284.657C184.875 285.22 184.469 286.02 184.4 286.883V286.883Z" fill="white"/>
<path d="M186.424 284.966L198.802 285.942C199.987 286.036 201.023 285.145 201.116 283.952L207.01 208.226C207.103 207.033 206.218 205.991 205.033 205.897L192.655 204.921C191.47 204.828 190.434 205.719 190.341 206.911L184.447 282.638C184.354 283.83 185.239 284.873 186.424 284.966Z" fill="#263238"/>
<path opacity="0.2" d="M192.604 285.443L198.809 285.932C199.993 286.026 201.029 285.134 201.122 283.942L207.017 208.216C207.109 207.023 206.224 205.98 205.039 205.887L198.834 205.398C197.649 205.304 196.614 206.195 196.521 207.388L190.626 283.114C190.533 284.307 191.419 285.349 192.604 285.443Z" fill="white"/>
<path d="M197.458 165.445L207.898 166.285C208.782 166.357 209.555 165.693 209.626 164.804L209.705 163.813C209.775 162.924 209.116 162.145 208.233 162.074L197.793 161.233C196.909 161.162 196.135 161.826 196.065 162.715L195.986 163.705C195.915 164.595 196.574 165.374 197.458 165.445Z" fill="#263238"/>
<path opacity="0.2" d="M197.458 165.445L207.898 166.285C208.782 166.357 209.555 165.693 209.626 164.804L209.705 163.813C209.775 162.924 209.116 162.145 208.233 162.074L197.793 161.233C196.909 161.162 196.135 161.826 196.065 162.715L195.986 163.705C195.915 164.595 196.574 165.374 197.458 165.445Z" fill="white"/>
<path opacity="0.2" d="M197.698 166.491L198.567 166.559C199.448 166.628 200.218 165.966 200.287 165.079L200.363 164.092C200.432 163.205 199.774 162.43 198.893 162.361L198.024 162.292C197.143 162.223 196.373 162.885 196.304 163.772L196.227 164.76C196.158 165.646 196.817 166.421 197.698 166.491Z" fill="black"/>
<path d="M230.032 213.904L224.704 282.349C224.61 283.558 224.043 284.679 223.128 285.467C222.213 286.255 221.025 286.646 219.824 286.552L195.024 284.596C194.183 284.524 193.404 284.121 192.858 283.474C192.311 282.827 192.04 281.988 192.104 281.141L197.6 209.982C197.669 209.136 198.068 208.351 198.709 207.799C199.351 207.247 200.183 206.973 201.024 207.035L225.824 208.992C226.421 209.035 227.004 209.196 227.54 209.466C228.075 209.737 228.552 210.111 228.943 210.567C229.334 211.024 229.631 211.553 229.818 212.126C230.005 212.699 230.078 213.303 230.032 213.904V213.904Z" fill="#E3056D"/>
<path opacity="0.2" d="M230.032 213.904L224.704 282.349C224.61 283.558 224.043 284.679 223.128 285.467C222.213 286.255 221.025 286.646 219.824 286.552L195.024 284.596C194.183 284.524 193.404 284.121 192.858 283.474C192.311 282.827 192.04 281.988 192.104 281.141L197.6 209.982C197.669 209.136 198.068 208.351 198.709 207.799C199.351 207.247 200.183 206.973 201.024 207.035L225.824 208.992C226.421 209.035 227.004 209.196 227.54 209.466C228.075 209.737 228.552 210.111 228.943 210.567C229.334 211.024 229.631 211.553 229.818 212.126C230.005 212.699 230.078 213.303 230.032 213.904V213.904Z" fill="white"/>
<path opacity="0.2" d="M212.976 207.977V208.074L212.088 208.001C211.245 207.939 210.412 208.215 209.771 208.769C209.129 209.322 208.731 210.109 208.664 210.957L203.128 282.091C203.078 282.805 203.265 283.516 203.66 284.111C204.056 284.706 204.637 285.151 205.312 285.377L195 284.572C194.159 284.502 193.38 284.1 192.831 283.455C192.283 282.809 192.01 281.972 192.072 281.125L197.6 209.99C197.667 209.142 198.065 208.356 198.707 207.802C199.348 207.249 200.181 206.973 201.024 207.035L212.976 207.977Z" fill="black"/>
<path opacity="0.2" d="M212.766 210.471L212.399 210.442C211.919 210.404 211.499 210.765 211.462 211.248L206.033 280.986C205.996 281.469 206.354 281.891 206.835 281.929L207.201 281.958C207.682 281.996 208.101 281.635 208.139 281.152L213.567 211.414C213.605 210.931 213.246 210.508 212.766 210.471Z" fill="black"/>
<path opacity="0.2" d="M217.734 211.205L217.367 211.176C216.887 211.138 216.467 211.499 216.429 211.983L211.001 281.72C210.963 282.203 211.322 282.626 211.802 282.664L212.169 282.693C212.649 282.73 213.069 282.369 213.106 281.886L218.535 212.149C218.572 211.665 218.214 211.243 217.734 211.205Z" fill="black"/>
<path opacity="0.2" d="M222.703 211.506L222.336 211.477C221.856 211.439 221.436 211.8 221.399 212.283L215.97 282.021C215.933 282.504 216.291 282.926 216.772 282.964L217.139 282.993C217.619 283.031 218.038 282.67 218.076 282.187L223.504 212.449C223.542 211.966 223.183 211.544 222.703 211.506Z" fill="black"/>
<path opacity="0.2" d="M227.658 211.798L227.291 211.769C226.811 211.731 226.391 212.092 226.353 212.576L220.925 282.313C220.887 282.796 221.246 283.219 221.726 283.257L222.093 283.286C222.573 283.323 222.993 282.962 223.03 282.479L228.459 212.742C228.496 212.258 228.138 211.836 227.658 211.798Z" fill="black"/>
</svg>
