<svg width="300" height="300" viewBox="0 0 300 300" fill="none" xmlns="http://www.w3.org/2000/svg">
<path d="M269.735 164.449L263.628 160.806C263.628 160.806 262.173 147.349 263.197 136.934C264.646 122.3 273.901 104.709 284.861 108.885C295.821 113.061 279.772 127.91 276.172 140.32C272.573 152.731 269.735 164.449 269.735 164.449Z" fill="#E3056D"/>
<path opacity="0.15" d="M269.735 164.449L263.628 160.806C263.628 160.806 262.173 147.349 263.197 136.934C264.646 122.3 273.901 104.709 284.861 108.885C295.821 113.061 279.772 127.91 276.172 140.32C272.573 152.731 269.735 164.449 269.735 164.449Z" fill="black"/>
<path d="M266.52 162.925C266.569 162.924 266.616 162.913 266.661 162.893C266.705 162.873 266.745 162.844 266.778 162.808C266.811 162.772 266.837 162.729 266.854 162.683C266.871 162.636 266.879 162.587 266.877 162.537C265.9 129.987 281.706 113.692 281.868 113.532C281.93 113.461 281.963 113.368 281.96 113.272C281.958 113.177 281.921 113.085 281.857 113.016C281.793 112.948 281.705 112.906 281.612 112.9C281.52 112.895 281.428 112.925 281.356 112.985C281.194 113.151 265.179 129.696 266.143 162.558C266.144 162.608 266.154 162.657 266.174 162.702C266.193 162.748 266.221 162.789 266.256 162.823C266.292 162.857 266.333 162.884 266.378 162.901C266.424 162.919 266.472 162.927 266.52 162.925Z" fill="white"/>
<path d="M273.571 166.741L269.23 164.144C269.179 156.897 270.342 149.696 272.667 142.855C276.637 131.151 286.357 125.887 291.136 127.619C295.915 129.35 296.488 132.792 294.149 136.442C291.81 140.092 276.853 148.783 273.571 166.741Z" fill="#E3056D"/>
<path d="M271.279 165.751C271.377 165.751 271.471 165.71 271.541 165.639C271.61 165.568 271.65 165.471 271.65 165.37C271.65 144.801 290.462 130.957 290.651 130.825C290.691 130.796 290.725 130.759 290.751 130.717C290.777 130.674 290.795 130.627 290.803 130.577C290.811 130.528 290.809 130.477 290.798 130.428C290.787 130.379 290.767 130.333 290.738 130.292C290.711 130.251 290.676 130.216 290.635 130.19C290.594 130.163 290.548 130.145 290.501 130.136C290.453 130.128 290.404 130.13 290.357 130.141C290.31 130.152 290.265 130.173 290.226 130.202C290.031 130.34 270.881 144.413 270.908 165.37C270.908 165.471 270.947 165.568 271.017 165.639C271.086 165.71 271.181 165.751 271.279 165.751V165.751Z" fill="white"/>
<path d="M38.8416 159.601L47.5166 154.462C47.5166 154.462 50.2936 140.556 48.4265 126.601C45.2451 102.832 32.6809 99.2726 27.875 100.976C23.069 102.68 21.667 108.352 29.5735 120.125C34.2312 127.051 39.9403 141.456 38.8416 159.601Z" fill="#E3056D"/>
<g opacity="0.15">
<path opacity="0.15" d="M38.8416 159.601L47.5166 154.462C47.5166 154.462 50.2936 140.556 48.4265 126.601C45.2451 102.832 32.6809 99.2726 27.875 100.976C23.069 102.68 21.667 108.352 29.5735 120.125C34.2312 127.051 39.9403 141.456 38.8416 159.601Z" fill="black"/>
</g>
<path d="M44.3082 151.803H44.2543C44.1986 151.796 44.1447 151.778 44.096 151.749C44.0473 151.72 44.0047 151.682 43.9707 151.636C43.9368 151.59 43.9121 151.538 43.8983 151.482C43.8845 151.426 43.8818 151.368 43.8903 151.311C46.4112 133.007 39.3135 112.916 31.2857 104.806C31.2052 104.724 31.1597 104.613 31.1591 104.497C31.1584 104.381 31.2028 104.269 31.2823 104.186C31.3619 104.104 31.4701 104.057 31.5833 104.056C31.6964 104.056 31.8051 104.101 31.8856 104.183C40.0348 112.438 47.274 132.854 44.7126 151.429C44.6973 151.529 44.6487 151.621 44.575 151.689C44.5014 151.757 44.4072 151.797 44.3082 151.803Z" fill="white"/>
<path d="M22.7387 169.047C21.7681 169.553 19.2 167.281 18.4855 166.727C17.2724 165.768 16.3168 164.507 15.7085 163.063C15.0261 161.411 14.859 159.582 15.2299 157.828C15.4277 156.897 15.6844 155.981 15.9983 155.085L16.888 152.447C17.2408 151.6 17.4198 150.688 17.4138 149.766C17.279 147.924 15.7624 146.553 14.3806 145.369C12.8573 144.053 11.28 142.349 11.4081 140.14C11.6139 138.437 12.3629 136.851 13.538 135.632C14.6367 134.35 15.9174 133.235 16.9083 131.878C17.6884 130.936 18.133 129.749 18.1687 128.512C18.11 127.75 17.9014 127.008 17.5553 126.331C16.8813 124.855 15.9376 123.484 15.4928 121.912C15.0479 120.34 15.2299 118.449 16.4567 117.383C17.4677 116.531 18.9034 116.483 20.1976 116.642C21.4082 116.865 22.5577 117.354 23.5678 118.075C26.8774 120.208 28.6029 124.461 32.1416 126.157C33.4897 126.815 35.0266 127.023 36.4623 127.501C37.898 127.979 39.3404 128.817 39.9403 130.237C41.2884 133.353 38.1541 136.324 40.3515 139.357C41.0255 140.292 41.922 141.047 42.65 141.955C44.6721 144.496 45.5956 147.162 45.0226 151.283C44.827 152.771 44.3172 154.197 43.529 155.462C42.7408 156.726 41.6931 157.799 40.4594 158.603C40.4594 158.603 22.914 168.971 22.7387 169.047Z" fill="#E3056D"/>
<path d="M32.1754 164.054C32.062 164.043 31.9574 163.987 31.8841 163.898C31.8109 163.808 31.7751 163.692 31.7844 163.576C33.3886 146.304 26.446 126.76 20.966 120.894C20.9271 120.853 20.8964 120.804 20.8759 120.75C20.8553 120.697 20.8452 120.64 20.8461 120.582C20.8471 120.524 20.859 120.468 20.8813 120.415C20.9036 120.362 20.9358 120.314 20.9761 120.274C21.0164 120.234 21.064 120.203 21.1161 120.182C21.1682 120.16 21.2238 120.15 21.2799 120.151C21.3359 120.152 21.3912 120.164 21.4426 120.187C21.4939 120.21 21.5404 120.243 21.5794 120.285C27.174 126.275 34.2582 146.144 32.6337 163.659C32.6234 163.774 32.5695 163.879 32.4836 163.953C32.3978 164.027 32.287 164.063 32.1754 164.054V164.054Z" fill="white"/>
<path d="M30.551 142.751H30.4229C26.4857 141.402 22.4176 140.497 18.2901 140.05C18.1786 140.039 18.0756 139.984 18.0036 139.896C17.9317 139.808 17.8965 139.694 17.9059 139.579C17.9091 139.521 17.924 139.464 17.9496 139.412C17.9751 139.36 18.0109 139.314 18.0545 139.277C18.0982 139.24 18.1489 139.213 18.2033 139.197C18.2578 139.181 18.3149 139.177 18.371 139.184C18.4384 139.184 25.2732 139.877 30.706 141.955C30.758 141.974 30.8057 142.004 30.8464 142.042C30.8871 142.08 30.92 142.127 30.9432 142.178C30.9664 142.23 30.9794 142.285 30.9815 142.342C30.9836 142.399 30.9747 142.455 30.9554 142.509C30.9178 142.585 30.8597 142.648 30.788 142.691C30.7162 142.734 30.6339 142.755 30.551 142.751V142.751Z" fill="white"/>
<path d="M299.752 213.993C299.889 166.492 232.954 127.781 150.248 127.529C67.5428 127.276 0.385542 165.579 0.248371 213.079C0.111199 260.58 67.0461 299.291 149.752 299.543C232.457 299.796 299.614 261.493 299.752 213.993Z" fill="#455A64"/>
<path d="M215.738 177.932L257.009 153.624L256.079 153.07C254.623 152.234 253.143 151.415 251.637 150.611L210.467 174.851C175.902 156.152 121.419 156.373 87.5952 175.661C70.2858 185.53 60.7278 198.889 60.6874 213.266C60.647 226.771 68.9984 239.417 84.2789 249.175L43.0005 273.484L43.9307 274.031C45.3866 274.876 46.8762 275.693 48.3726 276.496L89.5432 252.257C106.462 261.406 128.139 266.032 149.843 266.108C172.484 266.177 195.146 261.302 212.415 251.454C229.684 241.606 239.282 228.225 239.322 213.841C239.376 200.336 231.018 187.684 215.738 177.932ZM66.464 213.294C66.464 201.154 74.9973 189.637 90.3992 180.855C106.886 171.45 128.564 166.789 150.133 166.859C169.478 166.921 188.81 170.778 204.434 178.396L90.0487 245.789C74.8019 236.924 66.4302 225.393 66.464 213.294ZM209.624 246.259C178.382 264.072 128.658 264.848 95.5692 248.711L209.975 181.326C225.221 190.191 233.6 201.722 233.566 213.82C233.532 225.919 225.026 237.478 209.624 246.259Z" fill="#E0E0E0"/>
<path opacity="0.1" d="M239.654 231.426C239.696 216.91 219.894 205.083 195.425 205.008C170.956 204.934 151.087 216.64 151.045 231.155C151.003 245.671 170.805 257.498 195.273 257.573C219.742 257.647 239.612 245.941 239.654 231.426Z" fill="black"/>
<path opacity="0.1" d="M109.683 206.42C109.702 200.04 100.998 194.841 90.2436 194.809C79.4889 194.776 70.7556 199.921 70.7372 206.301C70.7188 212.681 79.4222 217.879 90.1769 217.912C100.932 217.945 109.665 212.8 109.683 206.42Z" fill="black"/>
<path d="M140.737 105.79L136.652 149.995C131.893 148.728 128.564 148.61 123.036 149.192C117.085 149.822 106.077 153.195 102.276 152.959L101.069 152.855L97.2205 151.983C97.2205 151.983 89.9207 163.063 103.038 163.541C112.717 164.573 124.802 167.15 134.63 168.258C154.056 170.439 156.948 169.934 159.57 163.292C161.477 158.444 162.758 154.289 165.124 142.515C167.658 129.904 168.15 117.937 168.271 109.841L140.737 105.79Z" fill="#FFBE9D"/>
<path d="M167.84 110.312L140.737 105.79C140.737 105.79 136.356 137.176 135.311 151.56C136.982 155.3 144.073 161.568 149.29 163.036C154.13 164.421 160.547 163.327 160.547 163.327C160.547 163.327 167.53 146.421 168.595 136.089C169.41 127.498 169.156 118.836 167.84 110.312V110.312Z" fill="#E3056D"/>
<path opacity="0.4" d="M167.84 110.312L140.737 105.79C140.737 105.79 136.356 137.176 135.311 151.56C136.982 155.3 144.073 161.568 149.29 163.036C154.13 164.421 160.547 163.327 160.547 163.327C160.547 163.327 167.53 146.421 168.595 136.089C169.41 127.498 169.156 118.836 167.84 110.312V110.312Z" fill="black"/>
<path d="M146.85 160.189C143.305 158.299 137.697 152.945 135.56 148.471C135.459 149.566 135.378 150.605 135.311 151.56C136.982 155.3 144.073 161.568 149.29 163.036C154.13 164.421 160.547 163.327 160.547 163.327L161.403 161.187C158.976 162.032 151.427 162.634 146.85 160.189Z" fill="white"/>
<path d="M91.8485 149.704C90.8227 148.861 89.5617 148.376 88.2491 148.319C86.9549 148.271 83.7195 149.884 82.7691 153.167C81.8187 156.45 82.2164 160.092 81.7445 162.468C81.2727 164.843 79.0012 169.075 77.7407 171.208C76.4803 173.341 75.8669 178.438 78.0306 182.344C79.4124 184.851 82.122 185.481 83.8543 185.557L91.8485 149.704Z" fill="white"/>
<path d="M101.413 159.123L100.806 159.04C99.5592 158.908 98.3037 158.88 97.0521 158.957C98.0945 158.483 99.0009 157.741 99.6843 156.804C100.368 155.866 100.805 154.764 100.955 153.603L101.036 152.855L102.242 152.959C102.285 152.725 102.255 152.483 102.157 152.267C102.059 152.051 101.898 151.871 101.696 151.754C101.28 151.525 100.82 151.39 100.348 151.359C98.5215 151.068 96.7083 150.667 94.9221 150.217C93.5268 149.85 91.99 149.143 90.5475 149.095C88.6333 149.025 85.964 150.764 84.7575 153.589C83.7127 156.041 83.7734 159.504 83.5307 162.087C83.3959 163.534 82.7893 164.566 82.2703 165.868C81.6771 167.357 79.9044 170.515 79.4326 172.053C79.0745 173.298 78.8996 174.591 78.9135 175.889C78.8678 177.313 79.0663 178.734 79.5 180.086C80.2145 182.164 82.0007 184.934 84.043 185.627C86.3348 185.467 88.8692 184.138 89.5297 181.125C89.9412 178.98 90.4837 176.863 91.1542 174.788C91.9772 172.724 93.0338 170.767 94.302 168.957C94.4435 168.763 94.5783 168.548 94.7266 168.375L95.1782 167.849C96.2904 166.609 97.807 165.944 99.2225 165.079C100.496 164.296 102.249 164.649 103.631 164.677C103.728 164.712 103.833 164.72 103.934 164.699C104.035 164.679 104.129 164.63 104.205 164.56C104.282 164.489 104.339 164.398 104.369 164.297C104.4 164.195 104.403 164.088 104.379 163.985C104.373 163.167 104.271 162.353 104.076 161.561C103.874 160.758 103.395 160.059 102.728 159.594C102.323 159.352 101.877 159.192 101.413 159.123Z" fill="#E3056D"/>
<path opacity="0.4" d="M101.413 159.123L100.806 159.04C99.5592 158.908 98.3037 158.88 97.0521 158.957C98.0945 158.483 99.0009 157.741 99.6843 156.804C100.368 155.866 100.805 154.764 100.955 153.603L101.036 152.855L102.242 152.959C102.285 152.725 102.255 152.483 102.157 152.267C102.059 152.051 101.898 151.871 101.696 151.754C101.28 151.525 100.82 151.39 100.348 151.359C98.5215 151.068 96.7083 150.667 94.9221 150.217C93.5268 149.85 91.99 149.143 90.5475 149.095C88.6333 149.025 85.964 150.764 84.7575 153.589C83.7127 156.041 83.7734 159.504 83.5307 162.087C83.3959 163.534 82.7893 164.566 82.2703 165.868C81.6771 167.357 79.9044 170.515 79.4326 172.053C79.0745 173.298 78.8996 174.591 78.9135 175.889C78.8678 177.313 79.0663 178.734 79.5 180.086C80.2145 182.164 82.0007 184.934 84.043 185.627C86.3348 185.467 88.8692 184.138 89.5297 181.125C89.9412 178.98 90.4837 176.863 91.1542 174.788C91.9772 172.724 93.0338 170.767 94.302 168.957C94.4435 168.763 94.5783 168.548 94.7266 168.375L95.1782 167.849C96.2904 166.609 97.807 165.944 99.2225 165.079C100.496 164.296 102.249 164.649 103.631 164.677C103.728 164.712 103.833 164.72 103.934 164.699C104.035 164.679 104.129 164.63 104.205 164.56C104.282 164.489 104.339 164.398 104.369 164.297C104.4 164.195 104.403 164.088 104.379 163.985C104.373 163.167 104.271 162.353 104.076 161.561C103.874 160.758 103.395 160.059 102.728 159.594C102.323 159.352 101.877 159.192 101.413 159.123Z" fill="black"/>
<path d="M79.1899 178.944C80.1133 181.236 81.731 180.363 82.6814 180.91C83.8587 181.783 84.8803 182.859 85.7011 184.089C86.4897 185.204 84.562 186.167 82.3983 185.357C81.2066 184.857 80.2282 183.936 79.6397 182.76C79.0513 181.584 78.8917 180.23 79.1899 178.944Z" fill="white"/>
<path d="M90.4127 177.378C89.8304 176.39 89.0628 175.53 88.1545 174.849C87.2462 174.168 86.2152 173.679 85.1215 173.41C85.0146 173.378 84.9023 173.368 84.7917 173.382C84.6811 173.397 84.5745 173.434 84.4786 173.493C84.3828 173.551 84.2998 173.629 84.2348 173.722C84.1697 173.815 84.1242 173.921 84.1009 174.033C84.0776 174.145 84.0771 174.261 84.0994 174.373C84.1217 174.486 84.1664 174.592 84.2305 174.686C84.2947 174.779 84.3771 174.858 84.4724 174.918C84.5677 174.977 84.674 175.016 84.7845 175.031C84.8249 175.031 89.7724 176.471 89.8668 179.719C90.3251 179.048 90.6015 178.944 90.4127 177.378Z" fill="white"/>
<path d="M86.6246 168.819C86.5206 168.796 86.4132 168.794 86.3087 168.814C86.2041 168.834 86.1044 168.875 86.0152 168.934C85.926 168.994 85.8491 169.071 85.7889 169.161C85.7286 169.251 85.6862 169.352 85.6641 169.459C85.642 169.566 85.6405 169.676 85.6599 169.784C85.6792 169.891 85.719 169.994 85.7769 170.085C85.8348 170.177 85.9097 170.256 85.9973 170.318C86.0849 170.38 86.1836 170.423 86.2876 170.446C86.328 170.446 90.6891 171.658 91.2957 174.504C91.5267 174.321 91.7093 174.081 91.827 173.806C91.9447 173.532 91.9938 173.231 91.9698 172.932C91.3966 171.91 90.6272 171.019 89.7083 170.311C88.7895 169.604 87.7403 169.096 86.6246 168.819V168.819Z" fill="white"/>
<path d="M88.4311 164.712C88.3242 164.679 88.2119 164.67 88.1012 164.684C87.9906 164.698 87.884 164.736 87.7882 164.794C87.6924 164.853 87.6093 164.931 87.5443 165.024C87.4793 165.117 87.4337 165.223 87.4104 165.335C87.3871 165.447 87.3866 165.563 87.409 165.675C87.4313 165.787 87.4759 165.893 87.5401 165.987C87.6043 166.081 87.6866 166.16 87.782 166.219C87.8773 166.279 87.9835 166.317 88.0941 166.332C88.1345 166.332 92.0979 167.267 92.9404 171.146C93.4709 170.672 93.8571 170.052 94.0526 169.359C93.5121 168.203 92.7268 167.185 91.7541 166.381C90.7814 165.577 89.646 165.007 88.4311 164.712V164.712Z" fill="white"/>
<path d="M96.8229 166.526C95.8995 162.786 92.5899 161.062 90.797 160.66C90.6906 160.629 90.5791 160.62 90.4694 160.635C90.3597 160.65 90.2541 160.687 90.1591 160.746C90.0641 160.804 89.9817 160.882 89.9171 160.974C89.8525 161.066 89.807 161.171 89.7834 161.282C89.7599 161.393 89.7588 161.508 89.7801 161.62C89.8015 161.731 89.8449 161.837 89.9077 161.931C89.9705 162.024 90.0513 162.104 90.1451 162.164C90.2389 162.224 90.3438 162.264 90.4532 162.281C90.5004 162.281 94.8412 163.32 95.3939 167.676C95.9942 167.491 96.5045 167.081 96.8229 166.526Z" fill="white"/>
<path d="M158.72 48.481C167.294 49.8661 172.875 52.5186 172.99 62.983C173.077 70.3448 172.39 80.4422 172.316 94.8057C180.305 98.961 188.378 102.943 196.534 106.752C197.552 107.243 198.61 107.641 199.695 107.943C201.01 108.297 202.344 109.328 203.477 110.021C205.949 111.64 208.213 113.571 210.217 115.769C210.922 116.483 211.508 117.311 211.95 118.221C212.168 118.677 212.295 119.175 212.323 119.683C212.351 120.191 212.279 120.699 212.111 121.178C211.75 122 211.104 122.655 210.298 123.013C209.498 123.369 208.642 123.574 207.77 123.616C204.621 123.761 201.48 123.191 198.57 121.947C195.361 120.693 192.503 118.685 189.335 117.424C186.713 116.386 184.651 115.672 180.991 114.439C176.994 113.096 173.077 111.752 169.532 110.61C166.479 109.626 160.965 107.653 158.208 105.949C153.294 102.909 154.454 99.0718 155.33 89.293C156.59 75.6844 158.43 60.7045 158.72 48.481Z" fill="#FFBE9D"/>
<path d="M177.209 144.607C170.523 135.86 165.292 129.205 159.152 120.479C162.812 116.074 165.11 111.96 168.77 107.493C156.024 105.416 143.318 103.843 130.552 101.475C129.204 110.09 127.31 108.587 127.323 119.89C127.323 127.792 139.038 140.604 147.585 148.527C153.025 153.562 159.57 159.428 166.627 164.262C166.517 169.349 167.324 174.414 169.006 179.2C170.867 184.643 173.805 189.747 176.555 194.755C179.151 199.471 181.826 204.146 184.395 208.883C185.561 211.023 186.707 213.176 187.765 215.365C188.324 216.501 188.81 218.135 189.524 219.105C190.791 220.871 192.894 222.138 195.011 221.833C195.603 221.737 196.18 221.555 196.723 221.293C198.745 220.379 200.767 217.934 200.181 215.753C199.682 213.89 198.833 211.362 198.287 209.52C194.734 196.548 190.421 177.808 187.933 166.637C185.055 153.652 183.289 152.551 177.209 144.607Z" fill="#FFBE9D"/>
<path d="M154.932 161.36C158.032 161.309 161.107 160.777 164.052 159.781C165.292 159.372 159.853 151.588 161.026 151.006C162.198 150.424 168.11 158.541 171.136 156.173C176.529 151.983 178.274 149.157 180.229 145.3C172.72 135.784 166.142 126.698 162.933 122.445C164.092 120.499 166.546 117.417 167.813 110.319C155.074 108.359 131.058 106.628 121.217 105.769C121.601 110.617 121.446 117.577 122.801 122.321C124.513 128.311 125.969 130.119 132.305 137.924C137.084 143.776 148.225 154.787 154.932 161.36Z" fill="#E3056D"/>
<path opacity="0.2" d="M154.932 161.36C158.032 161.309 161.107 160.777 164.052 159.781C165.292 159.372 159.853 151.588 161.026 151.006C162.198 150.424 168.11 158.541 171.136 156.173C176.529 151.983 178.274 149.157 180.229 145.3C172.72 135.784 166.142 126.698 162.933 122.445C164.092 120.499 166.546 117.417 167.813 110.319C155.074 108.359 131.058 106.628 121.217 105.769C121.601 110.617 121.446 117.577 122.801 122.321C124.513 128.311 125.969 130.119 132.305 137.924C137.084 143.776 148.225 154.787 154.932 161.36Z" fill="black"/>
<path d="M179.225 143.991C177.749 147.62 173.313 152.731 171.507 154.143C169.485 155.715 168.137 154.233 165.663 152.301C163.189 150.369 160.945 148.222 159.671 149.122C158.397 150.023 159.469 152.183 160.419 154.358C161.369 156.533 163.014 158.513 160.358 159.047C158.028 159.429 155.679 159.671 153.321 159.774C153.874 160.328 154.42 160.861 154.932 161.36C158.032 161.309 161.107 160.777 164.052 159.781C165.292 159.372 159.853 151.588 161.026 151.006C162.198 150.424 168.11 158.541 171.136 156.173C176.529 151.983 178.274 149.157 180.229 145.3C179.906 144.863 179.569 144.427 179.225 143.991Z" fill="#455A64"/>
<path d="M188.378 229.022C188.219 230.267 188.28 231.532 188.56 232.755C189.396 233.96 190.367 234.396 192.369 235.262C194.371 236.128 196.797 236.134 199.54 238.912C201.869 241.165 204.714 242.778 207.811 243.6C211.1 244.41 216.823 244.293 220.031 243.143C223.24 241.993 224.264 240.955 224.339 237.831C212.886 233.295 190.373 216.632 188.378 229.022Z" fill="white"/>
<path d="M223.941 235.269C221.966 230.947 216.58 229.728 212.704 227.457C210.938 226.415 209.26 225.222 207.69 223.89C207.474 223.71 207.258 223.53 207.056 223.343L206.948 223.246C202.553 219.139 200.882 213.509 200.208 211.819C199.534 210.129 196.75 212.74 194.418 214.063C193.653 214.515 193.051 215.209 192.702 216.042C192.354 216.875 192.277 217.801 192.483 218.682C192.381 218.23 192.171 217.81 191.874 217.46C191.577 217.109 191.2 216.84 190.778 216.674C189.963 216.38 189.099 216.255 188.237 216.307L187.563 214.88C186.019 216.39 187.724 218.675 188.237 221.397C188.749 224.119 187.522 227.886 188.796 229.908C188.871 230.078 188.961 230.241 189.066 230.393C190.751 232.734 193.11 232.769 196.211 234.174C198.819 235.338 201.104 237.637 203.625 239.41C207.251 241.917 212.32 242.229 216.196 241.682C220.072 241.135 225.909 239.59 223.941 235.269Z" fill="#E3056D"/>
<path opacity="0.4" d="M223.941 235.269C221.966 230.947 216.58 229.728 212.704 227.457C210.938 226.415 209.26 225.222 207.69 223.89C207.474 223.71 207.258 223.53 207.056 223.343L206.948 223.246C202.553 219.139 200.882 213.509 200.208 211.819C199.534 210.129 196.75 212.74 194.418 214.063C193.653 214.515 193.051 215.209 192.702 216.042C192.354 216.875 192.277 217.801 192.483 218.682C192.381 218.23 192.171 217.81 191.874 217.46C191.577 217.109 191.2 216.84 190.778 216.674C189.963 216.38 189.099 216.255 188.237 216.307L187.563 214.88C186.019 216.39 187.724 218.675 188.237 221.397C188.749 224.119 187.522 227.886 188.796 229.908C188.871 230.078 188.961 230.241 189.066 230.393C190.751 232.734 193.11 232.769 196.211 234.174C198.819 235.338 201.104 237.637 203.625 239.41C207.251 241.917 212.32 242.229 216.196 241.682C220.072 241.135 225.909 239.59 223.941 235.269Z" fill="black"/>
<path d="M213.001 241.91C216.189 241.682 215.32 239.722 218.245 238.171C221.17 236.619 223.907 235.483 224.311 236.785C224.716 238.087 224.568 240.511 219.472 241.813C214.275 243.15 212.421 242.27 213.001 241.91Z" fill="white"/>
<path d="M208.842 235.636C208.765 235.634 208.688 235.623 208.613 235.601C208.41 235.54 208.238 235.399 208.136 235.208C208.033 235.017 208.009 234.792 208.067 234.583C208.101 234.458 208.943 231.536 212.961 229.611C213.715 229.245 214.509 228.973 215.326 228.8C216.917 228.475 218.697 229.721 218.939 230.546C218.874 230.539 218.811 230.523 218.751 230.497C218.67 230.462 216.54 229.721 213.648 231.113C210.339 232.699 209.644 234.95 209.604 235.04C209.553 235.209 209.453 235.357 209.316 235.464C209.179 235.57 209.014 235.631 208.842 235.636V235.636Z" fill="white"/>
<path d="M203.881 232.803C203.807 232.813 203.733 232.813 203.659 232.803C203.557 232.774 203.461 232.724 203.378 232.656C203.295 232.589 203.226 232.505 203.174 232.409C203.123 232.314 203.09 232.209 203.079 232.101C203.067 231.992 203.076 231.883 203.106 231.778C203.106 231.661 203.942 228.911 207.952 226.986C208.77 226.583 209.633 226.283 210.521 226.092C211.538 225.829 213.453 227.394 212.967 227.637C212.455 227.533 210.945 227.388 208.64 228.489C205.337 230.075 204.663 232.208 204.656 232.228C204.604 232.397 204.501 232.544 204.361 232.647C204.222 232.751 204.053 232.806 203.881 232.803V232.803Z" fill="white"/>
<path d="M199.655 229.354C199.584 229.352 199.514 229.341 199.446 229.32C199.35 229.292 199.261 229.245 199.183 229.181C199.105 229.118 199.04 229.039 198.992 228.949C198.943 228.86 198.913 228.761 198.902 228.66C198.891 228.558 198.899 228.455 198.927 228.357C198.927 228.246 199.716 225.656 203.497 223.842C204.466 223.358 205.503 223.035 206.571 222.886C206.798 222.849 207.03 222.863 207.251 222.927C207.473 222.991 207.678 223.104 207.853 223.257C208.028 223.41 208.168 223.601 208.264 223.815C208.361 224.03 208.411 224.263 208.411 224.5C208.411 224.5 207.063 223.731 204.144 225.254C201.084 226.854 200.396 228.766 200.39 228.786C200.344 228.95 200.248 229.095 200.115 229.197C199.982 229.3 199.821 229.355 199.655 229.354V229.354Z" fill="white"/>
<path d="M195.813 225.698C195.693 225.7 195.574 225.669 195.469 225.608C195.29 225.513 195.154 225.349 195.092 225.152C195.03 224.954 195.047 224.74 195.139 224.555C195.173 224.5 197.835 219.299 203.686 219.292C204.131 219.292 204.906 220.199 204.879 220.94C203.22 220.719 201.534 221.014 200.039 221.786C198.545 222.559 197.31 223.774 196.494 225.275C196.429 225.403 196.331 225.51 196.211 225.585C196.091 225.66 195.953 225.699 195.813 225.698V225.698Z" fill="white"/>
<path d="M142.617 46.3964C142.617 46.3964 137.023 44.8174 132.183 46.2787C129.413 47.1167 129.487 50.801 127.519 54.5893C126.42 56.7293 123.475 62.0411 121.527 75.5805C119.828 87.5893 120.179 100.374 121.439 114.523C137.036 125.042 164.126 117.902 167.84 110.319C166.809 106.898 166.182 100.789 166.344 90.3734C166.58 74.7979 172.781 50.4201 158.471 48.4533L142.617 46.3964Z" fill="#E3056D"/>
<path d="M135.837 45.6831C134.6 45.7323 133.374 45.9322 132.183 46.2787C129.413 47.1167 129.487 50.8011 127.519 54.5893C126.609 56.3553 124.418 60.2959 122.605 69.2575C123.026 69.477 123.483 69.6132 123.953 69.6592C133.343 70.6426 137.178 60.9746 137.899 56.2099C138.62 51.4451 137.838 46.5557 135.837 45.6831Z" fill="white"/>
<path d="M126.959 67.6647L125.106 68.5027C125.106 68.5027 121.304 93.7461 124.917 116.483C125.591 116.815 126.339 117.12 127.067 117.404C122.962 94.2309 126.959 67.6647 126.959 67.6647Z" fill="white"/>
<path d="M130.909 67.4915L129.056 68.3295C129.056 68.3295 125.045 94.9234 129.17 118.103C129.844 118.318 130.572 118.512 131.287 118.685C126.737 95.1935 130.909 67.4915 130.909 67.4915Z" fill="white"/>
<path d="M142.961 47.2206C141.68 47.3106 141.559 47.9131 142.961 50.8426C144.363 53.7721 148.866 60.3167 154.71 59.4164C159.711 58.6545 159.003 54.1322 158.08 51.362C157.857 50.711 157.467 48.7511 155.903 48.4741L149.499 47.9477L142.961 47.2206Z" fill="white"/>
<path d="M141.593 84.3205C141.553 84.267 141.527 84.2043 141.516 84.1379C141.505 84.0714 141.511 84.0033 141.532 83.9396C141.567 83.7911 141.653 83.6606 141.775 83.5725L146.176 79.992L146.574 79.6873C146.726 79.5736 146.906 79.5042 147.093 79.4865L149.459 79.2649C149.522 79.2571 149.586 79.2637 149.647 79.284C149.707 79.3043 149.763 79.338 149.809 79.3826C149.856 79.4287 149.891 79.4853 149.912 79.5478C149.933 79.6104 149.939 79.6771 149.931 79.7427L148.859 92.2917C148.845 92.4372 148.781 92.5725 148.677 92.6726C148.578 92.7821 148.444 92.851 148.3 92.8666L145.779 93.0882C145.715 93.0965 145.65 93.0896 145.589 93.068C145.528 93.0464 145.473 93.0106 145.428 92.9635C145.382 92.9192 145.346 92.8639 145.325 92.8023C145.304 92.7408 145.298 92.6749 145.307 92.6103L146.015 84.1127L143.575 86.0657C143.468 86.1646 143.327 86.2168 143.184 86.2111C143.119 86.2109 143.056 86.1951 142.998 86.165C142.941 86.1349 142.891 86.0914 142.853 86.038L141.593 84.3205Z" fill="white"/>
<path d="M157.844 78.3299C158.663 78.2304 159.492 78.301 160.284 78.5377C160.896 78.7227 161.452 79.0633 161.902 79.5281C162.321 79.9711 162.623 80.5171 162.778 81.114C162.949 81.7566 163.024 82.4221 163 83.0878C163 83.6487 162.94 84.2305 162.893 84.833C162.845 85.4355 162.778 86.0173 162.704 86.5505C162.608 87.2543 162.42 87.9415 162.144 88.5935C161.866 89.2536 161.47 89.8548 160.978 90.3665C160.455 90.9088 159.841 91.3499 159.165 91.6685C158.37 92.0341 157.52 92.2545 156.651 92.3195C155.832 92.4155 155.003 92.3449 154.211 92.1117C153.6 91.924 153.044 91.5838 152.593 91.1213C152.173 90.6767 151.871 90.1281 151.717 89.5285C151.543 88.8934 151.463 88.235 151.481 87.5755C151.481 87.0491 151.535 86.4813 151.589 85.8718C151.643 85.2624 151.703 84.6806 151.778 84.1197C151.871 83.4042 152.059 82.7052 152.337 82.042C152.617 81.385 153.013 80.7864 153.503 80.276C154.025 79.7315 154.639 79.2902 155.316 78.974C156.114 78.6051 156.971 78.3869 157.844 78.3299V78.3299ZM159.192 86.7721C159.334 85.664 159.428 84.5767 159.468 83.5033C159.471 83.2086 159.449 82.9143 159.401 82.6238C159.363 82.3739 159.268 82.1367 159.125 81.9312C158.978 81.7372 158.779 81.5925 158.552 81.5157C158.245 81.4138 157.921 81.3831 157.601 81.4256C157.265 81.448 156.936 81.5349 156.631 81.6819C156.372 81.8085 156.142 81.9903 155.957 82.2151C155.78 82.4363 155.64 82.6869 155.546 82.9562C155.445 83.2503 155.375 83.5543 155.337 83.8634C155.18 84.944 155.088 86.0333 155.06 87.1253C155.044 87.4217 155.06 87.719 155.107 88.0118C155.144 88.2645 155.244 88.503 155.397 88.7043C155.55 88.8949 155.75 89.0387 155.977 89.1199C156.281 89.2218 156.603 89.2526 156.921 89.2099C157.26 89.1862 157.591 89.097 157.898 88.9467C158.154 88.8152 158.383 88.6341 158.572 88.4135C158.749 88.1962 158.886 87.9474 158.976 87.6794C159.069 87.3843 159.132 87.0803 159.165 86.7721H159.192Z" fill="white"/>
<path d="M139.732 36.7838C139.655 36.2002 139.655 35.6084 139.732 35.0248C139.294 34.8152 138.908 34.5032 138.608 34.1136C138.307 33.724 138.099 33.2677 138 32.7809C137.815 31.7944 138 30.7722 138.519 29.9207C139.127 29.0329 139.89 28.2695 140.77 27.6699C141.02 27.476 141.323 26.9773 141.148 26.6657C140.872 26.1532 139.928 26.3125 139.483 26.1463C138.788 25.8728 138.188 25.39 137.764 24.7612C137.299 24.052 137.031 23.2259 136.989 22.3719C136.899 21.7422 136.977 21.0992 137.214 20.5114C137.451 19.9235 137.84 19.4129 138.337 19.0338C138.686 18.7602 139.072 18.5409 139.483 18.3828C138.648 17.8009 137.995 16.9831 137.602 16.0281C137.232 15.0147 137.232 13.8974 137.602 12.8839C137.806 12.391 138.103 11.9444 138.475 11.5699C138.848 11.1955 139.289 10.9006 139.773 10.7024C140.919 10.1691 142.752 10.3838 142.914 10.7439C142.463 9.66882 142.318 8.48411 142.497 7.32787C142.676 6.17162 143.171 5.09144 143.925 4.2132C144.894 3.14364 146.195 2.4553 147.605 2.26713C148.01 2.21173 150.079 2.14247 151.131 2.95968C151.238 1.907 152.303 0.819701 153.389 0.355692C154.494 -0.085389 155.714 -0.117223 156.84 0.26566C158.262 0.729669 159.664 1.74079 161.106 1.35296C161.363 1.29063 162.65 0.888956 162.65 0.888956C162.96 0.951286 162.401 1.58151 162.461 1.92778C162.509 2.57472 162.348 3.21991 162.003 3.76304C160.655 6.24237 157.716 7.28119 154.979 7.57206C153.625 7.645 152.275 7.79064 150.935 8.00837C149.576 8.22967 148.327 8.91234 147.39 9.94751C146.657 10.9706 146.17 12.1571 145.967 13.4103C145.024 17.5127 144.611 21.7251 144.741 25.9385C144.869 29.4012 145.354 32.9333 144.552 36.3267C144.289 37.421 144.822 39.5679 143.541 39.7064C142.843 39.8204 142.127 39.7058 141.496 39.379C140.864 39.0521 140.349 38.5294 140.022 37.885C139.872 37.535 139.775 37.1638 139.732 36.7838V36.7838Z" fill="#263238"/>
<path d="M147.808 19.013C147.039 26.6311 152.196 33.4319 159.32 34.1868C166.445 34.9417 172.518 29.3389 173.603 21.7209C175.524 8.29926 169.215 7.30198 162.091 6.5471C154.966 5.79222 148.576 11.395 147.808 19.013Z" fill="#263238"/>
<path d="M140.548 12.8147C142.301 10.5569 143.682 11.0764 143.682 11.0764L143.494 22.919L145.051 23.4245L143.595 39.2909C142.784 38.725 142.177 37.8997 141.869 36.9431C141.438 35.7796 140.973 28.9511 140.737 24.865C140.737 24.865 139.052 14.7538 140.548 12.8147Z" fill="#263238"/>
<path d="M144.565 26.0355C143.77 26.4302 142.86 24.782 142.038 23.6531C141.215 22.5242 138.358 20.7929 136.517 24.0202C134.677 27.2474 137.036 32.1715 139.348 33.2103C143.298 35.0178 144.188 32.2823 144.188 32.2823L142.894 48.1001C148.859 62.893 162.158 60.6976 156.213 49.0905L156.685 44.298C156.685 44.298 160.318 45.2884 162.158 45.1845C165.205 45.0044 167.348 42.6705 168.609 39.2909C170.631 33.8613 171.642 29.4082 171.5 18.2928C171.352 6.11081 158.282 4.60105 150.74 8.59706C143.197 12.5931 144.565 26.0355 144.565 26.0355Z" fill="#FFBE9D"/>
<path d="M165.575 16.783C159.509 16.2982 155.856 14.5807 150.901 13.438C150.571 13.3336 150.22 13.3216 149.884 13.4033C148.724 13.7981 148.124 17.3163 147.861 18.3204C146.864 21.7001 145.732 27.4898 144.491 27.379C144.114 27.379 142.941 24.6573 142.098 23.6531C140.939 22.268 143.743 11.0833 143.743 11.0764C143.725 10.5474 143.676 10.0201 143.595 9.49736C143.687 8.48659 144.062 7.52475 144.673 6.72716C145.846 5.08456 147.538 3.91185 149.459 3.40984C152.998 2.40565 156.712 2.96661 160.244 1.76157C161.652 1.28371 163.007 0.570387 164.477 0.327994C165.946 0.0856019 167.631 0.404176 168.521 1.62999C169.047 2.49334 169.323 3.49258 169.316 4.511C170.048 3.56139 171.001 2.81601 172.087 2.34332C174.149 1.65077 176.468 3.1813 177.29 5.2451C178.113 7.3089 177.715 9.6982 176.872 11.7551C176.609 12.434 176.26 13.0744 175.834 13.6596C173.664 16.5614 168.865 17.0392 165.575 16.783Z" fill="#263238"/>
<path d="M142.584 11.5334L138.331 8.45852C138.497 8.15154 138.725 7.88377 138.998 7.6724C139.271 7.46103 139.585 7.31073 139.918 7.23117C140.251 7.1516 140.597 7.14452 140.933 7.21039C141.269 7.27625 141.588 7.4136 141.869 7.61361C142.444 8.05662 142.836 8.70499 142.969 9.43071C143.101 10.1564 142.964 10.9067 142.584 11.5334V11.5334Z" fill="#263238"/>
<path d="M156.685 44.2634C156.685 44.2634 150.126 42.1095 147.922 40.5305C146.609 39.5998 145.599 38.2846 145.024 36.7561C145.23 38.2512 145.718 39.6908 146.46 40.9945C147.936 43.5223 156.489 46.1679 156.489 46.1679L156.685 44.2634Z" fill="#9A4A4D"/>
<path d="M156.934 25.5368C156.923 25.7258 156.876 25.9107 156.795 26.0808C156.713 26.2508 156.6 26.4027 156.462 26.5276C156.323 26.6526 156.162 26.748 155.988 26.8086C155.813 26.8691 155.628 26.8935 155.445 26.8804C155.076 26.8238 154.745 26.6206 154.522 26.3147C154.298 26.0088 154.201 25.6248 154.251 25.246C154.263 25.057 154.31 24.8721 154.391 24.702C154.472 24.532 154.585 24.3801 154.724 24.2552C154.862 24.1303 155.023 24.0348 155.198 23.9742C155.373 23.9137 155.557 23.8893 155.741 23.9024C156.109 23.959 156.441 24.1623 156.664 24.4681C156.887 24.774 156.984 25.158 156.934 25.5368V25.5368Z" fill="#263238"/>
<path d="M155.795 20.0657L152.748 21.4508C152.586 21.0087 152.59 20.5201 152.759 20.0808C152.929 19.6414 153.252 19.2829 153.665 19.0753C153.867 18.9852 154.085 18.9395 154.305 18.9412C154.526 18.9429 154.743 18.992 154.944 19.0853C155.144 19.1786 155.324 19.314 155.47 19.4829C155.617 19.6517 155.728 19.8503 155.795 20.0657V20.0657Z" fill="#263238"/>
<path d="M156.941 35.5649L159.886 37.1232C159.804 37.333 159.681 37.5232 159.524 37.6819C159.367 37.8405 159.18 37.9643 158.974 38.0455C158.769 38.1267 158.549 38.1636 158.329 38.1539C158.109 38.1441 157.894 38.088 157.696 37.9889C157.295 37.7573 156.995 37.3788 156.855 36.9292C156.715 36.4796 156.746 35.9923 156.941 35.5649Z" fill="#9A4A4D"/>
<path d="M169.35 23.3345L166.944 20.8967C167.08 20.7207 167.252 20.5764 167.447 20.4732C167.642 20.37 167.855 20.3102 168.074 20.2978C168.293 20.2854 168.512 20.3206 168.717 20.4011C168.922 20.4817 169.107 20.6057 169.262 20.7651C169.582 21.107 169.769 21.5584 169.785 22.0326C169.801 22.5068 169.646 22.9704 169.35 23.3345Z" fill="#263238"/>
<path d="M168.143 26.3125C168.132 26.5015 168.085 26.6864 168.004 26.8564C167.923 27.0265 167.81 27.1784 167.671 27.3033C167.533 27.4282 167.371 27.5237 167.197 27.5842C167.022 27.6448 166.838 27.6692 166.654 27.656C166.284 27.5995 165.952 27.3952 165.728 27.0878C165.505 26.7804 165.409 26.3947 165.461 26.0147C165.48 25.8328 165.533 25.6565 165.619 25.496C165.704 25.3354 165.819 25.1937 165.958 25.0789C166.097 24.9641 166.256 24.8785 166.427 24.8269C166.598 24.7754 166.777 24.7589 166.954 24.7785C167.131 24.798 167.302 24.8532 167.459 24.9409C167.615 25.0286 167.753 25.147 167.865 25.2895C167.976 25.4319 168.06 25.5956 168.11 25.7711C168.16 25.9466 168.176 26.1306 168.157 26.3125H168.143Z" fill="#263238"/>
<path d="M161.073 24.3941L160.358 33.1272L165.286 32.4969L161.073 24.3941Z" fill="#9A4A4D"/>
<path d="M110.182 120.257C108.855 117.75 107.931 115.04 107.446 112.23C107.972 112.86 108.794 114.557 110.755 115.534C111.82 116.067 113.748 116.164 114.126 115.181C114.503 114.197 112.562 113.2 111.962 112.064C110.453 109.469 108.777 106.979 106.947 104.612C106.589 104.266 106.304 103.848 106.107 103.385C105.91 102.922 105.806 102.423 105.801 101.918C105.922 94.688 106.981 86.9245 107.203 79.5281C112.353 75.7606 121.008 71.626 125.658 68.5927C128.548 68.1111 131.176 66.5891 133.073 64.2989C135.014 62.152 136.915 57.3734 136.928 52.7679C136.928 50.3024 136.517 47.7608 135.843 46.6873C134.913 45.6623 132.54 45.4407 127.714 47.4976C125.692 48.3702 120.516 51.2235 111.746 57.3595C107.116 60.6076 99.7685 65.3862 94.4637 71.5914C92.2798 74.1469 94.4637 97.1465 94.8075 102.112C95.032 106.599 95.5385 111.066 96.3241 115.485C97.5374 121.42 100.806 126.448 105.087 126.462C111.955 126.483 112.063 123.74 110.182 120.257Z" fill="#FFBE9D"/>
<path d="M214.859 145.198C226.492 143.048 234.225 131.615 232.132 119.663C230.039 107.711 218.912 99.7657 207.279 101.916C195.647 104.067 187.914 115.499 190.007 127.451C192.1 139.403 203.226 147.349 214.859 145.198Z" fill="#E3056D"/>
<path opacity="0.1" d="M231.962 128.332C230.378 135.59 217.49 143.568 205.371 135.438C193.252 127.307 194.768 109.335 205.458 102.341C201.799 103.363 198.469 105.365 195.81 108.144C193.152 110.923 191.259 114.377 190.327 118.154C189.395 121.931 189.456 125.895 190.505 129.639C191.553 133.384 193.552 136.775 196.295 139.465C199.038 142.156 202.428 144.049 206.118 144.951C209.807 145.853 213.664 145.731 217.292 144.598C220.921 143.466 224.191 141.363 226.769 138.504C229.347 135.646 231.139 132.136 231.962 128.332V128.332Z" fill="black"/>
<path d="M225.006 115.548C228.133 116.815 230.654 119.938 232.454 122.896C232.454 122.293 232.4 121.697 232.339 121.109C230.54 118.449 228.181 115.88 225.323 114.717C224.197 114.258 222.993 114.039 221.782 114.071C220.572 114.103 219.38 114.386 218.279 114.904C217.654 114.128 216.98 113.355 216.257 112.583C215.643 111.891 215.037 111.309 214.423 110.748C219.957 108.179 223.664 108.144 226.954 108.844C226.624 108.463 226.28 108.103 225.916 107.749C222.707 107.265 219.014 107.576 213.716 110.104C212.77 109.279 211.77 108.523 210.723 107.84C213.561 106.053 214.834 104.176 214.679 101.89C214.396 101.842 214.107 101.794 213.817 101.759C213.985 103.504 213.176 105.36 209.887 107.299C207.064 105.643 203.925 104.634 200.686 104.342C200.262 104.591 199.837 104.848 199.433 105.125C202.798 105.241 206.091 106.161 209.051 107.812C206.079 109.384 202.87 110.07 199.756 110.741C197.094 111.309 194.526 111.863 192.342 112.951C192.092 113.408 191.87 113.872 191.668 114.336C193.939 112.881 196.878 112.258 199.938 111.565C203.275 110.873 206.726 110.104 209.941 108.297C210.983 108.952 211.976 109.686 212.913 110.492C205.304 114.495 195.84 125.195 195.132 138.146C195.395 138.45 195.671 138.755 195.955 139.046C196.258 125.887 205.998 114.959 213.628 111.115C214.302 111.732 214.976 112.403 215.65 113.151C216.324 113.899 216.897 114.536 217.477 115.229C210.312 119.093 209.995 129.62 209.671 140.749C209.624 142.287 209.577 143.852 209.51 145.41L210.372 145.452C210.44 143.887 210.487 142.322 210.534 140.777C210.858 129.835 211.161 119.488 218.036 115.935C223.948 123.47 226.206 131.518 224.851 140.306C225.195 140.008 225.525 139.697 225.855 139.371C226.913 130.818 224.595 122.951 218.859 115.561C220.826 114.726 223.035 114.721 225.006 115.548V115.548Z" fill="#455A64"/>
</svg>
