<svg width="60" height="60" viewBox="0 0 60 60" fill="none" xmlns="http://www.w3.org/2000/svg">
<path d="M25.4499 42.52C25.7499 42.52 25.9774 42.51 26.1274 42.49C26.3034 42.4544 26.462 42.3601 26.5774 42.2225C26.7274 42.065 26.8024 41.8375 26.8024 41.5375L26.7924 40.145C26.7849 39.2575 26.7824 38.5525 26.7824 38.035L26.3124 38.1175C25.9363 38.1767 25.5554 38.2002 25.1749 38.1875C24.6968 38.179 24.2202 38.1314 23.7499 38.045C23.2508 37.9519 22.7811 37.7411 22.3799 37.43C21.9593 37.1118 21.6454 36.6732 21.4799 36.1725L21.2749 35.7C21.1025 35.3279 20.8859 34.9779 20.6299 34.6575C20.4001 34.329 20.0938 34.0613 19.7374 33.8775L19.5949 33.7775C19.4968 33.7052 19.4078 33.6213 19.3299 33.5275C19.2543 33.4423 19.192 33.3462 19.1449 33.2425C19.1049 33.1475 19.1374 33.0675 19.2449 33.0075C19.4336 32.9317 19.6371 32.9 19.8399 32.915L20.2499 32.9775C20.5249 33.03 20.8624 33.195 21.2649 33.4675C21.6649 33.7425 21.9974 34.095 22.2574 34.5325C22.5724 35.0925 22.9499 35.52 23.3949 35.8125C23.7877 36.0895 24.2544 36.2427 24.7349 36.2525C25.1849 36.2525 25.5749 36.22 25.9024 36.1525C26.2212 36.0864 26.5309 35.9823 26.8249 35.8425C26.9474 34.93 27.2799 34.225 27.8249 33.735C27.1174 33.665 26.4162 33.5413 25.7274 33.365C25.0549 33.1796 24.4082 32.9109 23.8024 32.565C23.168 32.2208 22.6074 31.7553 22.1524 31.195C21.7174 30.6475 21.3599 29.9325 21.0774 29.045C20.7829 28.048 20.6421 27.0119 20.6599 25.9725C20.6599 24.3225 21.1999 22.915 22.2774 21.755C21.7724 20.5125 21.8199 19.12 22.4199 17.5775C22.8174 17.4525 23.4049 17.545 24.1824 17.8525C24.9599 18.16 25.5324 18.4225 25.8924 18.6425C26.2549 18.86 26.5424 19.0425 26.7624 19.1925C28.0429 18.8369 29.366 18.6586 30.6949 18.6625C32.0449 18.6625 33.3574 18.8375 34.6274 19.195L35.4024 18.7025C35.9374 18.3775 36.5649 18.075 37.2874 17.8025C38.0124 17.5275 38.5649 17.4525 38.9474 17.5775C39.5624 19.12 39.6174 20.5125 39.1099 21.7525C40.1899 22.915 40.7299 24.32 40.7299 25.9725C40.7299 27.1325 40.5899 28.16 40.3099 29.055C40.0299 29.95 39.6674 30.665 39.2249 31.205C38.7625 31.7598 38.1992 32.2221 37.5649 32.5675C36.9592 32.9135 36.3125 33.1822 35.6399 33.3675C34.9503 33.5431 34.2482 33.666 33.5399 33.735C34.2499 34.3475 34.6049 35.3175 34.6049 36.6425V41.535C34.6049 41.7675 34.6399 41.955 34.7074 42.1C34.7392 42.1691 34.7846 42.231 34.8408 42.2821C34.8971 42.3333 34.9631 42.3725 35.0349 42.3975C35.1849 42.45 35.3199 42.485 35.4349 42.4975C35.5524 42.5125 35.7174 42.52 35.9349 42.52H25.4524H25.4499Z" fill="#FB2A09"/>
<path d="M15 10C13.6739 10 12.4021 10.5268 11.4645 11.4645C10.5268 12.4021 10 13.6739 10 15V45C10 46.3261 10.5268 47.5979 11.4645 48.5355C12.4021 49.4732 13.6739 50 15 50H45C46.3261 50 47.5979 49.4732 48.5355 48.5355C49.4732 47.5979 50 46.3261 50 45V15C50 13.6739 49.4732 12.4021 48.5355 11.4645C47.5979 10.5268 46.3261 10 45 10H15ZM15 5H45C47.6522 5 50.1957 6.05357 52.0711 7.92893C53.9464 9.8043 55 12.3478 55 15V45C55 47.6522 53.9464 50.1957 52.0711 52.0711C50.1957 53.9464 47.6522 55 45 55H15C12.3478 55 9.8043 53.9464 7.92893 52.0711C6.05357 50.1957 5 47.6522 5 45V15C5 12.3478 6.05357 9.8043 7.92893 7.92893C9.8043 6.05357 12.3478 5 15 5V5Z" fill="#FB2A09"/>
</svg>
